<svg xmlns="http://www.w3.org/2000/svg" width="16" height="12" fill="currentColor" viewBox="0 0 16 12">
  <path d="M9.875 7.973a2.65 2.65 0 0 1-3.75 0l.663-.663c.648.648 1.776.648 2.424 0l.663.663ZM6.125 5a.625.625 0 1 1 0 1.25.625.625 0 0 1 0-1.25Zm3.75 0a.625.625 0 1 1 0 1.25.625.625 0 0 1 0-1.25Z"/>
  <path fill-rule="evenodd" d="M8 0c2.643 0 4.897 1.479 5.812 3.565.98.296 1.688 1.102 1.688 2.06s-.709 1.764-1.688 2.06C12.896 9.77 10.642 11.25 8 11.25c-2.643 0-4.898-1.479-5.812-3.565C1.208 7.389.5 6.583.5 5.625s.709-1.764 1.688-2.06C3.102 1.48 5.358 0 8 0Zm0 1.25c-2.393 0-4.395 1.48-4.884 3.446-.039-.003-.076-.008-.116-.008-.677 0-1.25.429-1.25.937s.573.938 1.25.938c.04 0 .077-.006.116-.01C3.605 8.522 5.607 10 8 10c2.393 0 4.395-1.48 4.884-3.446.039.003.076.008.116.008.677 0 1.25-.429 1.25-.937s-.573-.938-1.25-.938c-.04 0-.077.006-.116.01C12.395 2.728 10.393 1.25 8 1.25Z" clip-rule="evenodd"/>
</svg>
