<svg xmlns="http://www.w3.org/2000/svg" width="16" height="11" fill="currentColor" viewBox="0 0 16 11">
  <path fill-rule="evenodd" d="M13.437.25c.897 0 1.624.728 1.625 1.625v6.632c0 .897-.728 1.625-1.625 1.625H1.625A1.625 1.625 0 0 1 0 8.507V1.875C0 .978.728.25 1.625.25h11.812ZM1.25 5.43h2.828l.126.012a.626.626 0 0 1 0 1.225l-.126.013H1.25v1.827c0 .207.168.375.375.375h11.812a.375.375 0 0 0 .375-.375v-4.13H1.25V5.43Zm.375-3.93a.375.375 0 0 0-.375.375v1.253h12.562V1.875a.376.376 0 0 0-.375-.375H1.625Z" clip-rule="evenodd"/>
</svg>
