<svg xmlns="http://www.w3.org/2000/svg" width="14" height="15" fill="currentColor" viewBox="0 0 14 15">
  <path d="M9.958 14.459H3.542v-1.25h6.416v1.25Zm-1.75-5.417H5.292v-1.25h2.916v1.25Z"/>
  <path fill-rule="evenodd" d="M6.753.783c.334 0 .597.172.776.363.177.19.309.435.407.7l1.025 2.73.01.019.01-.006 2.135-1.522.196-.131c.197-.124.397-.22.594-.273.257-.07.614-.09.92.14.305.231.383.58.387.845.004.272-.063.57-.17.87v.003l-2.357 6.597-.006.02c-.1.25-.285.446-.472.575a1.28 1.28 0 0 1-.717.234H4.008a1.27 1.27 0 0 1-.722-.24 1.268 1.268 0 0 1-.469-.605L.404 4.352V4.35a2.392 2.392 0 0 1-.16-.816c.004-.25.078-.59.377-.815.299-.225.645-.2.886-.135.248.068.497.205.736.377L4.51 4.584l.023.012c.003-.006.009-.012.012-.02l1.024-2.731a2.11 2.11 0 0 1 .407-.699c.18-.191.442-.363.777-.363Zm-.013 1.5L5.713 5.02l-.001.004a1.272 1.272 0 0 1-.807.78 1.279 1.279 0 0 1-1.107-.193l-.008-.005-2.164-1.548 2.365 6.615.003.003.013.01c.004.004.01.006.014.008l.005.003h5.447a.129.129 0 0 0 .026-.013c.01-.007.018-.016.022-.02L11.866 4.1l.012-.04-.033.023-.001.001-2.135 1.522-.004.003a1.267 1.267 0 0 1-1.107.196 1.273 1.273 0 0 1-.804-.78l-.002-.005-1.027-2.736-.013-.032-.012.031Z" clip-rule="evenodd"/>
</svg>
