<svg xmlns="http://www.w3.org/2000/svg" width="13" height="13" fill="currentColor" viewBox="0 0 13 13">
  <path fill-rule="evenodd" d="M8.125 7.158v.425a8.087 8.087 0 0 0 1.465 4.334H13V13H0v-1.083h4.333c.034-2.1.86-4.017 2.167-5.417l.241-.264 1.384.922Zm-1.083.375a7.031 7.031 0 0 0-1.625 4.384h.541v-1.354h.271l.271 1.354h.406l-.27-1.896h.27l.813 1.896.583-.001a9.1 9.1 0 0 1-1.26-4.296v-.087Z" clip-rule="evenodd"/>
  <path d="M1.354 10.833a.271.271 0 1 1-.001.543.271.271 0 0 1 .001-.543ZM2.708 9.75a.542.542 0 1 1 0 1.085.542.542 0 0 1 0-1.085Zm-1.489-.812a.406.406 0 1 1 0 .811.406.406 0 0 1 0-.812ZM13 .361 8.707 6.244 7.482 5.43 12.458 0 13 .361Z"/>
</svg>
