<svg xmlns="http://www.w3.org/2000/svg" width="9" height="14" fill="currentColor" viewBox="0 0 9 14">
  <path d="M9 3.25c0 .35-.253.636-.563.636H.562C.253 3.886 0 3.6 0 3.25c0-.35.253-.636.562-.636h7.875c.31 0 .563.286.563.636ZM7.714 1.386c0 .35-.18.637-.402.637H1.687c-.22 0-.401-.287-.401-.637 0-.35.18-.636.401-.636h5.625c.221 0 .402.287.402.636ZM9 5.159c0 .35-.253.636-.563.636H.562C.253 5.795 0 5.51 0 5.16c0-.35.253-.636.562-.636h7.875c.31 0 .563.286.563.636Zm-.563 1.205H.562C.253 6.364 0 6.65 0 7c0 .35.253.636.562.636H2.25v.955H1.125v2.545c0 1.054.755 1.91 1.687 1.91l.282.954h2.812l.281-.954c.932 0 1.688-.855 1.688-1.91V8.591H6.75v-.955h1.687C8.747 7.636 9 7.35 9 7c0-.35-.253-.636-.563-.636ZM3.375 7.636h2.25v.955h-2.25v-.955Zm3.375 3.5c0 .351-.252.637-.563.637H2.812c-.31 0-.562-.286-.562-.637V9.864h4.5v1.272Z"/>
</svg>
