<svg xmlns="http://www.w3.org/2000/svg" width="13" height="9" fill="currentColor" viewBox="0 0 13 9">
  <path d="m5.576 2.621.258.018a5.281 5.281 0 0 1 3.382 1.686 5.665 5.665 0 0 1 1.49 3.844h-1.53a4.047 4.047 0 0 0-1.064-2.746A3.772 3.772 0 0 0 5.696 4.22l-.184-.013a3.735 3.735 0 0 0-2.548.864l-.142.123c-.694.635-1.21 1.952-1.298 3.043L0 8.102c.11-1.355.73-3.112 1.812-4.1l.198-.171a5.228 5.228 0 0 1 3.566-1.21Z"/>
  <path d="M5.606 6.582c.422 0 .765.356.765.794a.779.779 0 0 1-.765.793c-.422 0-.765-.355-.765-.793 0-.438.343-.794.765-.794ZM7.136.236c.77 0 1.532.157 2.244.463a5.856 5.856 0 0 1 1.902 1.319 6.103 6.103 0 0 1 1.272 1.973A6.28 6.28 0 0 1 13 6.318h-1.53a4.64 4.64 0 0 0-.33-1.72 4.512 4.512 0 0 0-.94-1.458 4.33 4.33 0 0 0-1.406-.975 4.2 4.2 0 0 0-1.658-.342V.236Z"/>
</svg>
