<svg xmlns="http://www.w3.org/2000/svg" width="15" height="15" fill="currentColor" viewBox="0 0 15 15">
  <path d="M8.563 13.063c0 .655-.531 1.187-1.187 1.187H1.438a1.188 1.188 0 0 1-1.187-1.188h8.312Z"/>
  <path fill-rule="evenodd" d="M9.751 0v4.042l.302-3.448 1.182.103-.333 3.803.01.001.99-2.72 1.115.407-.744 2.041a5.058 5.058 0 0 1 1.25-1.26l.681.972a3.862 3.862 0 0 0-.953.96 8.59 8.59 0 0 1 1.25.443l-1.188 8.906H9.752v-1.188h2.523l.925-6.94c-.995-.31-2.205-.481-3.448-.481-1.242 0-2.453.171-3.448.48l.03.224c1.325.595 2.23 1.783 2.23 3.155H.251c0-1.968 1.86-3.562 4.156-3.563.232 0 .458.02.68.052L5 5.344a8.684 8.684 0 0 1 1.349-.469 3.824 3.824 0 0 0-1.052-1.957l.84-.84a5.05 5.05 0 0 1 1.119 1.707l-.475-2.688L7.952.89l.611 3.472V0h1.188ZM4.407 7.125c-1.096 0-2.056.478-2.57 1.188h5.14c-.514-.71-1.473-1.188-2.57-1.188Z" clip-rule="evenodd"/>
  <path d="M8.563 11.875H.251v-1.188h8.312v1.188Z"/>
</svg>
