<svg xmlns="http://www.w3.org/2000/svg" width="14" height="13" fill="currentColor" viewBox="0 0 14 13">
  <path d="M9.188 9.5H4.812l-.312-1h5l-.312 1Z"/>
  <path d="M12.417 3.25v1.912l-.542.361V.813a15.032 15.032 0 0 0-9.75 0v4.71l-.542-.36V3.25H.5v2.167L2.125 6.5V13h1.354l.542-1.625h5.958L10.521 13h1.354V6.5L13.5 5.417V3.25h-1.083ZM6.996 1.083c1.298 0 2.572.176 3.796.524v.56H3.208v-.56a13.84 13.84 0 0 1 3.788-.524ZM7.033 6.5 4.867 4.333l-.575.575L5.884 6.5H3.208V3.25h7.584V6.5H7.033Zm-3.825 3.79v-.81h1.084L4.02 8.396h-.813v-.813h7.584v.813h-.813l-.27 1.083h1.083v.812H3.208Z"/>
</svg>
