<svg xmlns="http://www.w3.org/2000/svg" width="14" height="14" fill="currentColor" viewBox="0 0 14 14">
  <path d="M0 7.966h1.75v1.277c0 .03-.004.06-.006.09.002.03.006.06.006.09v2.244a.58.58 0 0 0 .091.314l.067.086.012.012.013.013.086.067c.09.058.198.091.314.091h3.5V14h-3.5l-.238-.012a2.333 2.333 0 0 1-2.082-2.083L0 11.667v-3.7Zm14 3.701-.012.238a2.333 2.333 0 0 1-2.083 2.083l-.238.012h-3.5v-1.75h3.5a.576.576 0 0 0 .4-.158l.025-.025a.576.576 0 0 0 .158-.4v-3.7H14v3.7ZM5.833 0v1.75h-3.5a.576.576 0 0 0-.4.158l-.013.012-.012.013a.576.576 0 0 0-.158.4v2.244c0 .03-.004.06-.006.09.002.03.006.06.006.09v.876H0v-3.3C0 1.125.918.132 2.095.013L2.333 0h3.5Zm6.072.013A2.333 2.333 0 0 1 14 2.333v3.3h-1.75v-3.3a.575.575 0 0 0-.091-.314l-.067-.086-.013-.013-.012-.012-.086-.067a.575.575 0 0 0-.314-.091h-3.5V0h3.5l.238.013Z"/>
</svg>
