<svg xmlns="http://www.w3.org/2000/svg" width="14" height="14" fill="currentColor" viewBox="0 0 14 14">
  <path d="M11.365.55c0 .492-.072.972-.209 1.429L12.584.55l.667.666-1.428 1.428a4.959 4.959 0 0 1 1.428-.208v.942a3.982 3.982 0 0 0-2.716 1.063c.833 1.182.97 2.534.243 3.261-.263.263-.529.516-.796.764l-.78-.78c.265-.247.53-.5.796-.765.317-.318.172-1.388-.78-2.339-.952-.952-2.02-1.098-2.34-.78-.276.277-.54.554-.795.83L7.75 6.3 7 7.05 5.377 5.428c-.527.616-1 1.223-1.418 1.816l.957.956-.767.767-.804-.804c-.99 1.567-1.594 2.996-1.85 4.145.7-.156 1.504-.443 2.38-.867l-.624-.624.765-.765.862.86a22.777 22.777 0 0 0 3.5-2.49l.779.78C5.92 11.981 2.563 13.591.25 13.55.205 10.848 2.404 6.72 6.099 3.023c.726-.725 2.077-.59 3.258.243A3.981 3.981 0 0 0 10.423.55h.942Z"/>
</svg>
