<svg xmlns="http://www.w3.org/2000/svg" width="20" height="19" fill="currentColor" viewBox="0 0 20 19">
  <path fill-rule="evenodd" d="M9.502.514a9.34 9.34 0 0 1-.236.076.726.726 0 0 0-.242.115 1.646 1.646 0 0 1-.191.142c-.073.047-.138.105-.144.129-.016.062.062.372.118.467.026.046.07.091.099.102.08.031.195.024.21-.012.006-.018.029-.032.05-.032.06 0 .088.12.07.309-.016.185-.063.268-.207.364-.107.071-.133.07-.257-.015l-.102-.07.008-.315c.006-.232 0-.324-.019-.348a1.667 1.667 0 0 0-.22-.15c-.186-.113-.201-.118-.34-.118a.473.473 0 0 0-.265.062c-.35.18-.692.52-.888.88-.112.208-.148.422-.153.9-.002.27-.014.452-.038.568a15.96 15.96 0 0 0-.098.675c-.084.66-.138.98-.213 1.248-.073.265-.075.31-.017.373a.54.54 0 0 1 .07.098c.046.096.187.072.45-.076.18-.101.241-.157.405-.368.148-.19.27-.308.337-.324.1-.025.314-.159.379-.239.036-.044.103-.158.15-.255.082-.167.111-.2.18-.2.017 0 .108-.03.202-.067a.642.642 0 0 0 .28-.182c.11-.114.169-.139.218-.09.05.052.028.135-.061.223-.139.136-.179.24-.21.545-.045.448-.009.724.126.956.055.095.055.137 0 .137-.072 0-.355.105-.536.2a1.2 1.2 0 0 0-.311.23c-.129.13-.143.152-.143.23 0 .06.027.137.086.25l.086.166-.27-.013a28.463 28.463 0 0 0-1.349-.018l-.214.005-.165.216c-.091.12-.177.23-.19.247-.038.048-.07.035-.238-.093-.284-.218-.74-.592-.74-.606a.528.528 0 0 0-.144-.072c-.165-.066-.265-.153-.213-.186a.141.141 0 0 1 .062-.02c.053 0 .43.131.466.163.092.081.393-.038.545-.216.098-.115.126-.174.141-.298.006-.046.018-.125.027-.177a.582.582 0 0 0-.01-.259c-.006-.03-.075-.09-.194-.17a4.458 4.458 0 0 1-.29-.212 2.798 2.798 0 0 0-.179-.137 2.36 2.36 0 0 1-.242-.224 1.836 1.836 0 0 0-.243-.217c-.057-.034-.075-.06-.08-.116-.006-.062.007-.085.097-.17.073-.07.107-.121.114-.17.01-.068.004-.075-.091-.124-.104-.054-.292-.066-.293-.02 0 .012-.038.049-.084.082l-.084.06-.037-.069a1.002 1.002 0 0 0-.097-.14c-.052-.062-.074-.072-.154-.072-.085 0-.104.01-.197.107a.476.476 0 0 1-.128.107.467.467 0 0 1-.125-.075c-.135-.1-.195-.11-.388-.055-.252.07-.434.18-.675.405-.112.105-.15.172-.168.305-.012.081-.034.117-.128.212-.172.173-.243.386-.243.732a.664.664 0 0 1-.066.3.513.513 0 0 0-.057.29c.006.098.022.152.055.195.103.13.12.18.112.337-.015.353-.014.367.069.53.084.168.145.248.228.304.048.032.054.052.065.226.016.252.065.364.187.435.05.03.117.06.147.067.053.012.056.02.07.211.009.11.026.21.038.226.044.054.156.089.306.095l.153.006v.086c0 .106-.133.58-.176.628a.884.884 0 0 0-.086.184c-.03.081-.073.178-.095.214-.07.115-.214.507-.277.752-.066.252-.105.326-.2.373-.078.04-.111.017-.185-.128a.36.36 0 0 1-.05-.246c.014-.197.186-.544.384-.777.06-.07.068-.127.07-.475.003-.371-.025-.508-.127-.616-.11-.115-.173-.14-.32-.127-.23.02-.477.074-.553.12a.316.316 0 0 1-.129.044c-.061 0-.122.063-.321.332a1.86 1.86 0 0 0-.303.557.652.652 0 0 1-.068.162.403.403 0 0 0-.05.133 1.879 1.879 0 0 1-.285.605.916.916 0 0 0-.217.495c-.014.165.024.23.172.301.21.1.514.053.84-.127l.194-.107a.66.66 0 0 1 .097-.044c.022-.007.047-.061.068-.146a4.09 4.09 0 0 1 .086-.286l.052-.15.001.153c.002.128.016.187.087.36.11.27.113.274.24.335.084.04.138.051.25.049.146-.003.202-.026.31-.126a.3.3 0 0 1 .119-.063l.065-.014.037.178c.034.165.034.189.003.323a1 1 0 0 1-.233.463c-.187.204-.183.185-.196 1.072-.013.902-.003 1.01.107 1.183.04.065.089.13.108.147.04.034.201.303.201.336 0 .013-.058.044-.129.07a.775.775 0 0 0-.376.322.388.388 0 0 0-.07.233c-.004.119.001.136.061.2.125.136.358.46.473.66.09.156.182.27.42.521l.306.321.18-.013c.098-.007.264-.037.369-.067.104-.03.293-.08.42-.11.272-.064.225-.094.418.267.072.134.153.259.18.277.045.03.07.03.254-.003.113-.02.314-.065.447-.1s.426-.107.652-.16c.227-.054.464-.112.528-.129a8.22 8.22 0 0 1 1.064-.16c.174-.013.388-.034.475-.046a7.07 7.07 0 0 1 .51-.034c.327-.012.354-.01.367.026.016.04-.046.105-.08.084-.01-.007-.017.003-.017.02 0 .062-.045.133-.114.18-.062.044-.101.05-.355.057-.187.006-.3.018-.33.037-.105.067-.02.231.174.335.105.056.118.058.408.053l.299-.006.053.07c.301.398.33.423.461.406a.25.25 0 0 0 .12-.075c.199-.218.42-.443.437-.443.01 0 .03.012.045.026.017.018.093.027.22.027.173 0 .208-.007.315-.062.151-.078.186-.116.2-.22.017-.13-.012-.142-.342-.147-.316-.004-.351-.016-.443-.157a.34.34 0 0 0-.107-.107c-.033-.016-.05-.039-.046-.062.006-.033.039-.038.258-.044.138-.003.338.005.443.018.105.013.311.032.459.042.547.038 1.174.133 1.534.234.122.034.274.074.337.088.064.014.226.057.359.096.27.08.683.162.811.16.138 0 .17-.033.306-.316.07-.145.142-.27.161-.277.036-.014.26.035.482.106.325.103.6.126.738.062.133-.061.56-.54.781-.876a7.58 7.58 0 0 1 .251-.354c.195-.255.206-.281.194-.448a.714.714 0 0 0-.043-.206c-.045-.09-.171-.195-.307-.258a.532.532 0 0 1-.132-.077c-.02-.03.003-.18.037-.248.015-.03.089-.123.164-.207l.137-.154.014-.243c.008-.133.011-.55.008-.928-.009-.772-.001-.734-.187-.973a1.706 1.706 0 0 1-.16-.268c-.073-.155-.073-.156-.067-.43.005-.256.009-.275.048-.281.023-.003.066.016.095.044.064.062.18.112.353.153.126.03.136.03.232-.018.128-.062.266-.243.306-.403.023-.093.037-.115.068-.11.033.006.036-.004.025-.085-.01-.078-.009-.084.01-.04.012.03.034.083.05.118.042.102.186.254.345.364.248.173.63.232.879.138.132-.05.162-.096.187-.287.018-.143-.02-.232-.174-.405-.158-.176-.231-.32-.351-.688-.117-.356-.4-.963-.506-1.08a1.815 1.815 0 0 0-.28-.166c-.24-.122-.25-.126-.442-.133-.146-.005-.21 0-.244.023a.397.397 0 0 1-.102.045.433.433 0 0 0-.14.098c-.073.071-.088.102-.1.199-.025.208-.043.707-.025.718.024.015.19.28.266.425.17.324.208.532.136.747-.052.155-.136.173-.272.06-.085-.07-.095-.093-.116-.244a2.137 2.137 0 0 0-.106-.357c-.079-.207-.148-.37-.406-.957a.84.84 0 0 1-.095-.414l-.009-.221.113.013a.844.844 0 0 0 .208-.004c.122-.022.154-.084.169-.316.01-.165.013-.173.074-.204.035-.017.123-.08.197-.138.115-.093.13-.114.12-.161A1.979 1.979 0 0 1 17.373 8l-.012-.153.136-.136c.09-.09.16-.186.208-.285.07-.143.073-.161.076-.404.003-.244.006-.259.068-.361.059-.096.065-.123.065-.28a.696.696 0 0 0-.056-.315c-.047-.116-.06-.187-.07-.398-.015-.304-.041-.37-.234-.58-.117-.128-.125-.143-.125-.241 0-.093-.01-.117-.09-.21a.977.977 0 0 0-.378-.298c-.27-.142-.44-.203-.577-.203-.1 0-.13.01-.213.075a.45.45 0 0 1-.12.075.47.47 0 0 1-.122-.109l-.098-.109-.123.015c-.149.019-.155.022-.155.08a.324.324 0 0 1-.057.13l-.057.083-.055-.061a1.461 1.461 0 0 1-.085-.107c-.027-.04-.042-.043-.152-.028a.596.596 0 0 0-.195.063c-.06.038-.074.06-.074.117 0 .039.016.084.034.1a.8.8 0 0 1 .156.282c0 .02-.025.059-.057.085-.03.027-.133.12-.227.209a5.265 5.265 0 0 1-.57.476 2.07 2.07 0 0 0-.23.194c-.142.137-.144.14-.129.222.01.046.023.172.031.28a.744.744 0 0 0 .043.23c.038.048.25.192.38.258.107.055.201.06.264.012.011-.01.097-.042.19-.073.193-.064.347-.075.347-.024 0 .03-.216.192-.355.265-.073.039-.305.216-.641.49-.149.121-.278.22-.288.22-.01 0-.084-.09-.166-.198a10.577 10.577 0 0 0-.198-.257l-.049-.059-.59-.003a20.98 20.98 0 0 0-.925.013l-.335.017.085-.115c.1-.136.131-.208.131-.312 0-.21-.651-.663-.896-.622-.05.008-.074.002-.082-.019a.883.883 0 0 1 .066-.24c.077-.205.078-.213.076-.509-.003-.435-.099-.816-.252-1.003-.048-.058-.068-.143-.034-.143.027.001.166.094.276.186a.86.86 0 0 0 .274.145c.09.03.181.068.2.082a.915.915 0 0 1 .116.198c.105.218.23.34.469.454.149.07.198.108.304.23.152.177.434.43.542.486.14.073.255.05.396-.08.083-.076.085-.082.072-.177a4.362 4.362 0 0 0-.055-.281 6.195 6.195 0 0 1-.11-.643c-.016-.112-.044-.3-.064-.418-.141-.857-.159-1.009-.145-1.264a3.735 3.735 0 0 0-.011-.452.992.992 0 0 0-.12-.446 1.578 1.578 0 0 0-.248-.383c-.32-.371-.485-.51-.708-.596-.155-.059-.356-.047-.556.034-.14.057-.143.06-.174.17-.018.06-.04.25-.049.418l-.017.308-.067.06a.213.213 0 0 1-.218.051c-.023-.009-.027-.138-.021-.683l.007-.672-.05-.036a2.66 2.66 0 0 0-.456-.272c-.099-.04-.17-.05-.404-.054a1.885 1.885 0 0 0-.338.013Zm.235.463a.924.924 0 0 1-.232.072l-.055-.003.052-.015c.046-.014.04-.018-.042-.027a.54.54 0 0 0-.1-.006.336.336 0 0 0-.019.077c-.01.07-.007.074.08.106.169.063.24.29.209.672-.022.284-.091.447-.217.515-.06.033-.094.075-.14.174-.044.093-.077.135-.111.144a.649.649 0 0 1-.327.014 3.421 3.421 0 0 1-.581-.38c-.028-.032-.03-.08-.016-.326.021-.377.017-.386-.156-.386-.126 0-.143.006-.259.092a2.99 2.99 0 0 0-.482.508c-.055.084-.164.579-.154.692.006.056.018.07.07.082.035.007.05.015.033.016-.023.002-.025.009-.007.026.024.025.093-.018.254-.157.177-.152.407.015.34.245a3.83 3.83 0 0 0-.05.381c-.04.406-.145 1.138-.175 1.217-.007.02.013.017.069-.01.065-.032.094-.07.17-.222.123-.25.225-.61.207-.73a2.236 2.236 0 0 1 .013-.366c.027-.262.031-.279.086-.318.077-.056.144-.053.23.012.098.073.105.09.082.214-.018.099.012.67.037.695.005.005.027-.01.05-.032.045-.047.096-.226.127-.449.043-.313.091-.525.126-.557.03-.029.054-.03.17-.006.125.025.135.032.132.081l-.018.268-.015.214.103.054c.083.043.104.065.11.117.003.035.039.178.078.318.086.303.09.37.02.467a1.228 1.228 0 0 0-.235.517.886.886 0 0 0 .022.474c.018.049.042.13.055.18.031.127.084.123.084-.006 0-.14.112-.422.21-.526.063-.068.093-.084.154-.084.042 0 .084.012.093.026.011.018.021.001.03-.048.007-.041.015.075.017.257.005.37.04.393.042.029.002-.211.004-.22.059-.264.04-.032.073-.042.11-.032.083.02.149.071.172.133.011.03.049.114.083.186a.526.526 0 0 1 .063.238.32.32 0 0 0 .03.15c.03.042.03.042.062 0 .091-.125.115-.33.076-.655-.031-.256-.07-.357-.203-.537l-.117-.158.01-.177c.014-.235.074-.363.2-.423a.37.37 0 0 0 .12-.09c.053-.076.064-.228.025-.327-.044-.111-.044-.277-.002-.34.05-.071.184-.065.256.012.03.033.062.057.072.054.01-.003.019.01.019.029 0 .019.014.098.03.177.017.078.05.251.075.384.025.134.055.265.067.293.018.04.096.097.133.097.03 0 .034-.247.01-.511-.023-.265-.023-.317.003-.362.07-.123.204-.141.303-.04.052.053.07.175.086.576.009.251.041.405.134.648.11.281.168.396.204.396.018 0 .027-.01.02-.021-.008-.012-.003-.022.009-.022s.022.021.022.047c0 .025.005.041.01.035.024-.023.014-.128-.04-.434a7.322 7.322 0 0 1-.075-.578 2.731 2.731 0 0 0-.097-.615.416.416 0 0 1-.025-.126.578.578 0 0 1 .106-.123c.09-.086.107-.095.171-.083.053.01.079.03.097.074.025.063.126.125.247.154.063.015.069.011.082-.049a1.728 1.728 0 0 0-.001-.292c-.022-.338-.106-.516-.39-.83a2.585 2.585 0 0 0-.36-.304c-.032-.024-.053-.022-.133.014a.295.295 0 0 0-.117.086 1.554 1.554 0 0 0-.023.345c0 .362-.021.436-.141.485-.044.019-.182.081-.306.14-.236.11-.403.162-.325.1.037-.029.028-.033-.102-.045a.506.506 0 0 1-.17-.037c-.072-.06-.09-.216-.104-.887-.008-.453-.02-.68-.038-.717A.331.331 0 0 0 10.2.95c-.105-.073-.244-.064-.463.027Zm2.593 2.68c.02.136.043.34.05.455.008.113.031.298.053.41.021.112.046.252.054.31a.733.733 0 0 0 .205.434c.06.062.114.113.122.113.015 0-.008-.163-.04-.29a4.925 4.925 0 0 1-.057-.407 6.965 6.965 0 0 0-.065-.467 1.519 1.519 0 0 1-.03-.24c0-.11-.038-.312-.065-.341a.153.153 0 0 1-.019-.08c0-.05-.015-.067-.093-.103-.158-.073-.156-.076-.115.205ZM7.352 3.45a.23.23 0 0 1-.1.022c-.063 0-.069.005-.069.07 0 .038-.02.146-.042.24a4.793 4.793 0 0 0-.074.418c-.043.333-.065.468-.127.787-.028.15-.052.318-.052.376 0 .1.002.103.043.074.046-.034.21-.262.21-.294 0-.012.023-.1.05-.198.056-.198.097-.437.164-.959.075-.582.075-.587-.003-.536Zm-.203 1.072c0 .135.004.19.008.123a2.423 2.423 0 0 0 0-.246c-.004-.068-.008-.013-.008.123Zm-4.088.124c-.118.042-.232.117-.262.173-.012.023-.012.07 0 .122a.99.99 0 0 1 .02.107c0 .012-.086.093-.191.18-.22.18-.242.209-.272.355a.362.362 0 0 0 .01.214c.045.152.04.188-.044.379-.082.183-.083.232-.007.336.022.031.064.113.091.182l.05.126-.05.147a.911.911 0 0 0-.05.195c.002.101.072.198.204.285.163.106.224.212.204.355-.02.15.025.233.167.306.114.058.119.065.144.178.02.09.02.134.002.182-.031.085.005.172.068.163.032-.004.045-.024.05-.076.003-.038.015-.07.026-.07s.02-.015.02-.034c0-.061-.256-.699-.339-.844a.828.828 0 0 1-.105-.3 1.684 1.684 0 0 0-.045-.212 6.076 6.076 0 0 1-.145-.572 1.234 1.234 0 0 1-.031-.426c.013-.2.044-.414.052-.365a.54.54 0 0 0 .054-.15c.073-.25.188-.494.254-.538a.336.336 0 0 1 .16-.039c.088 0 .112.008.146.052.068.09.055.216-.034.324a1.18 1.18 0 0 0-.251.812c.017.247.069.56.12.729.068.228.308.869.398 1.068.143.313.205.877.137 1.232-.039.2-.217.76-.258.808a3.173 3.173 0 0 0-.154.3c-.11.237-.128.29-.14.443-.016.193.031.464.098.563.02.03.052.107.07.171.046.166.083.577.058.646a2.872 2.872 0 0 1-.314.49c-.154.178-.144.073-.117 1.189.02.808.004.742.231.998.08.09.17.207.202.262.055.097.06.1.158.1.13 0 .259-.022.259-.044 0-.025-.209-.24-.306-.314a2.24 2.24 0 0 0-.205-.133c-.106-.06-.125-.082-.162-.183-.037-.1-.04-.137-.023-.325.011-.116.029-.333.04-.482a3.313 3.313 0 0 1 .13-.71c.016-.06.049-.1.135-.165a.962.962 0 0 0 .126-.107c.008-.011.122-.1.254-.196.156-.112.271-.215.326-.288.119-.16.306-.51.362-.674.054-.162.076-.485.044-.66-.028-.159.002-.251.107-.322l.082-.055.088.047a.452.452 0 0 0 .11.047c.066 0 .43-.749.43-.886a.466.466 0 0 0-.152-.361c-.087-.086-.104-.117-.114-.204-.01-.084-.004-.113.034-.161.069-.088.133-.076.305.056.082.063.173.127.202.142.029.015.133.084.232.154.098.07.28.193.403.275.204.136.228.16.27.26.033.076.043.131.034.177-.045.222-.028.647.04.977.027.138.028.136.025-.193-.002-.187.01-.435.028-.568.017-.13.03-.266.03-.305 0-.04-.052-.174-.12-.315a2.816 2.816 0 0 1-.12-.266c0-.022-.19-.32-.234-.367-.14-.148-.51-.666-.548-.765-.033-.089-.022-.144.046-.227.054-.067.06-.086.04-.113-.026-.031-.4-.344-.666-.556a4.081 4.081 0 0 0-.284-.203c-.301-.193-.469-.39-.514-.606-.007-.032-.022-.059-.034-.059-.052 0-.229-.092-.216-.112.007-.013.003-.016-.012-.007-.013.008-.057-.005-.098-.03-.081-.052-.1-.08-.026-.04.026.013-.006-.032-.072-.102-.242-.255-.252-.29-.104-.366l.092-.048.104.054c.057.03.181.112.276.183.187.141.172.138.416.084.149-.033.258-.026.337.02.193.112.246.134.32.133.112-.002.163-.037.21-.146.062-.14.009-.258-.158-.352a2.515 2.515 0 0 1-.253-.185 1.145 1.145 0 0 0-.186-.135.225.225 0 0 0-.077.04 1.43 1.43 0 0 1-.145.085l-.088.046-.075-.045c-.041-.025-.075-.06-.075-.076 0-.017-.008-.026-.019-.02-.046.03.04-.243.09-.286.077-.064.034-.126-.182-.26a.313.313 0 0 1-.144-.164 1.208 1.208 0 0 0-.05-.108c-.017-.018-.126.045-.17.1-.064.077-.138.092-.254.051-.073-.025-.096-.045-.114-.103-.039-.118-.207-.15-.412-.079Zm13.217-.002a.354.354 0 0 0-.06.092c-.05.1-.064.106-.206.107-.118 0-.122-.002-.174-.086-.03-.047-.07-.085-.09-.085-.022 0-.063.046-.1.11a.576.576 0 0 1-.206.205c-.078.052-.142.108-.142.125s.029.078.063.135c.072.117.078.17.032.26-.075.147-.25.143-.388-.008-.029-.03-.059-.056-.068-.056-.015 0-.12.083-.303.242-.046.04-.144.113-.216.163-.122.083-.132.095-.131.17a.41.41 0 0 0 .047.164c.041.074.062.088.144.104.102.019.097.02.353-.12a.507.507 0 0 1 .143-.059c.092 0 .308.051.335.08.044.044.092.022.293-.133.322-.25.367-.266.48-.164l.068.062-.052.101c-.058.114-.226.264-.418.374-.11.062-.133.087-.164.171-.04.112-.154.297-.218.355-.028.026-.043.07-.045.127-.003.088-.003.088-.016.016l-.013-.072-.098.088a.892.892 0 0 1-.19.128 1.77 1.77 0 0 0-.273.188c-.17.138-.522.433-.583.49-.022.02-.015.051.037.162a.934.934 0 0 1 .064.162c0 .036-.094.194-.2.34-.052.07-.145.2-.206.286a8.327 8.327 0 0 1-.214.29 1.717 1.717 0 0 0-.177.292l-.158.348-.085.188.04.123c.035.107.04.183.038.584-.001.319.004.427.016.353l.04-.226c.01-.066.02-.186.02-.268 0-.082.011-.272.024-.423.028-.31.035-.325.224-.471.169-.131.542-.393.701-.492.075-.047.172-.118.215-.158.117-.106.175-.114.255-.033.098.1.09.187-.023.291a.339.339 0 0 0-.11.17 4.695 4.695 0 0 1-.052.19c-.028.093-.027.117.011.268.047.187.257.647.326.713.045.043.046.043.083.002.057-.064.153-.079.205-.03.09.082.105.15.123.54.022.478.06.599.301.966.16.242.49.54.79.713.19.108.268.34.3.884.012.188.041.445.066.571l.044.229-.06.077a.472.472 0 0 1-.149.118c-.127.058-.257.164-.424.346l-.145.159.234.001c.247.002.265-.004.266-.098 0-.034.062-.13.169-.266.102-.13.173-.24.18-.283.008-.04.024-.069.036-.066.016.003.021-.24.017-.81l-.006-.813-.053-.108a2.883 2.883 0 0 0-.172-.278c-.166-.24-.196-.315-.208-.517-.012-.195.018-.334.123-.57a.988.988 0 0 0 .08-.322c.01-.097.02-.15.02-.118.003.055.046.087.046.033 0-.069-.22-.636-.348-.896a3.1 3.1 0 0 1-.3-1.03 3 3 0 0 1 .015-.432c.03-.293.133-.614.305-.962.14-.28.33-.903.368-1.197.022-.175-.02-.665-.069-.779a1.144 1.144 0 0 0-.106-.182c-.166-.233-.189-.34-.094-.463.051-.066.12-.07.245-.012.067.031.1.063.123.12.018.044.073.148.123.231.086.146.093.167.127.446.02.161.036.369.035.46 0 .198-.05.5-.106.644-.021.057-.05.16-.065.232-.043.213-.12.431-.208.584-.24.419-.325.788-.207.901a.216.216 0 0 0 .061.047.932.932 0 0 0 .02-.213c.008-.237.03-.281.165-.339a.486.486 0 0 0 .11-.065c.043-.038.05-.147.012-.16-.02-.007-.02-.03.002-.103.053-.18.107-.278.167-.3a.486.486 0 0 0 .223-.143c.039-.053.039-.058-.008-.284-.055-.267-.05-.302.088-.517.1-.157.1-.22.006-.436-.052-.12-.054-.14-.041-.343.017-.258 0-.311-.119-.392-.119-.08-.356-.306-.356-.339 0-.015.017-.056.037-.091.034-.06.034-.07 0-.14-.056-.12-.172-.169-.427-.179a.913.913 0 0 0-.234.009Zm-6.494.939a.293.293 0 0 0 .003.171c.024.08.026.082.04.032a.569.569 0 0 0-.003-.171l-.018-.118-.022.086Zm-8.012.503c0 .077.004.108.008.07a.691.691 0 0 0 0-.14c-.004-.038-.008-.007-.008.07Zm8.574.043c0 .012-.025.021-.055.021-.036 0-.058.014-.065.042-.006.023-.026.045-.044.048-.03.006-.029.011.004.045.051.052.028.132-.046.161a.904.904 0 0 1-.169.037c-.11.014-.11.015-.114.092-.003.078-.003.078-.011.01-.01-.071-.02-.077-.194-.097-.058-.007-.07-.025-.122-.197-.033-.11-.047-.13-.1-.144-.07-.019-.095.004-.096.085 0 .09-.125.355-.196.419l-.068.061.124-.013c.068-.008.429-.014.801-.015.548 0 .666-.005.618-.026-.047-.02-.07-.056-.11-.169a2.598 2.598 0 0 1-.073-.262c-.015-.078-.035-.12-.054-.12-.017 0-.03.01-.03.022Zm-1.813.461c-.071.052-.125.125-.126.174 0 .013.016.046.038.073.031.04.045.044.079.024.037-.022.037-.024-.013-.025-.07-.001-.02-.035.1-.067.123-.032.138-.058.096-.154-.041-.092-.073-.097-.174-.025Zm2.48.042c-.079.096-.079.097-.026.097.069 0 .202.064.202.098 0 .035.065.058.09.032a.329.329 0 0 0 .031-.128c.01-.103.008-.109-.06-.15-.106-.066-.148-.057-.237.051Zm-1.985.427-.19.025.116.014a9.19 9.19 0 0 0 1.272.054c.304-.005.57-.018.592-.027.09-.04-.076-.059-.652-.076-.735-.022-.9-.02-1.138.01Zm-.564.367a1.698 1.698 0 0 1-.305.014c-.28-.002-.289-.001-.24.034.078.056.23.217.371.393a4.6 4.6 0 0 0 .253.287c.125.127.348.267.426.267.022 0 .049.009.06.02.011.01.058.03.104.044.12.037.22.084.317.15.175.12.364.215.43.215.074 0 .246-.083.485-.234.15-.095.317-.16.56-.216a.924.924 0 0 0 .596-.427 3.55 3.55 0 0 1 .325-.464l.062-.066-.312-.012a3.128 3.128 0 0 0-.428.007c-.454.074-2.134.088-2.372.02-.095-.028-.315-.049-.332-.032Zm4.274.083c-.355.139-.589.302-.746.519-.145.2-.378.445-.501.53a1.923 1.923 0 0 1-.335.145c-.293.101-.547.225-.67.328-.05.041-.147.1-.216.13a3.41 3.41 0 0 0-.161.076.186.186 0 0 1-.085.018c-.038-.002-.035-.006.016-.018.061-.015.06-.016-.032-.03a2.165 2.165 0 0 0-.286-.009c-.213.006-.24-.005-.466-.2-.13-.112-.137-.116-.755-.404a1.024 1.024 0 0 1-.355-.254 2.627 2.627 0 0 1-.27-.32c-.104-.155-.105-.157-.383-.298-.32-.163-.535-.243-.653-.243-.07 0-.08.005-.068.037.033.083.033.204.003.569-.018.21-.028.393-.023.407.006.015.055.027.118.028.085.002.149.024.3.104.293.155.45.285.691.573.24.286.39.404.586.458.494.137.627.2.85.406.133.123.187.22.25.452.058.217.044.34-.08.715-.094.282-.096.293-.085.492.008.148.03.26.076.404.036.11.065.217.065.24 0 .022.016.055.035.074.05.052.02.062.02.19-.019.2.168-.523.236.259 0 .218-.265-.25-.29 0-.017.159-.017.31-.041.398-.094.345-.11.455-.097.632.028.345.147.67.316.863a.558.558 0 0 0 .117.112c.01 0-.004.056 0 0l.042.027.076-.012c.1-.017.142-.058.254-.25.132-.228.22-.518.232-.772.01-.193.006-.22-.087-.557a2.723 2.723 0 0 1-.11-.546c-.012-.185-.008-.207.088-.536.056-.189.107-.41.116-.493.013-.14.008-.172-.089-.492-.084-.28-.103-.377-.107-.525-.004-.16.003-.198.055-.31.17-.372.43-.566.955-.716.08-.022.246-.09.369-.15.24-.118.218-.096.605-.578.2-.248.534-.475.7-.475h.068l-.013-.112a9.189 9.189 0 0 1-.027-.525c-.015-.47 0-.443-.208-.36Zm-6.574.383c-.204.277-.213.312-.11.439.025.032.088.123.14.203.05.08.103.145.117.145.038 0 .053-.216.046-.654l-.006-.385-.187.252Zm7.209.293c-.009.247-.01.46-.002.472.033.054.096.017.17-.1.042-.067.082-.137.089-.155a.928.928 0 0 1 .061-.114.348.348 0 0 0 .049-.108c0-.055-.297-.444-.338-.444-.008 0-.021.202-.03.45Zm-.574.825c-.152.077-.282.193-.503.45-.169.197-.415.409-.566.486-.068.035-.261.11-.43.168a1.922 1.922 0 0 0-.35.146 1.35 1.35 0 0 1-.136.1c-.054.037-.095.082-.103.116a.677.677 0 0 1-.045.12c-.054.11-.036.328.051.61.068.218.078.275.08.483a1.36 1.36 0 0 1-.044.407c-.051.19-.103.44-.122.592-.016.124.036.488.092.642.12.33.138.698.047.94-.054.142-.054.143-.01.16.083.032.36-.215.778-.694.373-.429.488-.606.777-1.2.263-.538.36-.776.401-.986.016-.077.043-.197.061-.268.019-.07.042-.259.052-.418a1.48 1.48 0 0 0-.04-.557 4.467 4.467 0 0 0-.07-.302c-.008-.02.033-.14.105-.298.065-.145.133-.332.15-.416.031-.151.028-.3-.009-.337-.01-.011-.079.011-.166.056Zm-5.985.005c-.13.033-.124.167.02.52.207.506.237.635.164.714a.409.409 0 0 0-.068.111c-.048.128-.01.8.06 1.073l.058.235c.045.188.136.412.216.53.034.05.11.192.168.316.34.712.87 1.386 1.457 1.848.137.107.213.13.213.062 0-.08-.088-.463-.11-.477-.04-.025 0-.396.068-.619.144-.481.141-.7-.016-1.292-.053-.203-.055-.218-.032-.464.017-.184.037-.28.07-.347.07-.14.146-.38.146-.463 0-.118-.113-.332-.233-.442-.122-.11-.268-.184-.49-.246a2.498 2.498 0 0 1-.343-.134c-.162-.079-.214-.12-.395-.307a4.027 4.027 0 0 1-.241-.265c-.04-.06-.248-.212-.414-.301-.117-.063-.197-.077-.298-.052Zm-4.846.34c-.169.034-.389.106-.437.144a1.47 1.47 0 0 0-.141.18l-.109.155.002.246c.002.23 0 .251-.055.348a8.602 8.602 0 0 0-.14.265.807.807 0 0 1-.198.265.92.92 0 0 0-.235.304c-.034.088.418-.034.545-.148.068-.06.089-.11.206-.479.168-.525.19-.57.307-.626.246-.117.328.01.201.313-.07.167-.118.345-.1.364.008.007.029-.024.047-.07.018-.046.11-.241.203-.434l.17-.35.002-.22c.002-.308-.001-.311-.268-.257Zm15.602.1c-.09.186-.075.31.075.648.12.273.25.547.259.547.013 0-.033-.147-.082-.262a1.794 1.794 0 0 1-.078-.227c-.032-.13-.017-.174.074-.207.074-.027.227.052.284.147a5.3 5.3 0 0 1 .18.495c.12.364.15.438.208.49a.79.79 0 0 0 .414.178l.133.014-.016-.051c-.037-.117-.226-.299-.311-.299-.04 0-.1-.146-.1-.24 0-.038-.014-.142-.03-.23a6.685 6.685 0 0 1-.051-.316.888.888 0 0 0-.2-.47l-.146-.161c-.08-.089-.224-.143-.428-.162l-.128-.011-.057.117Zm-3.611.374c-.159.165-.197.24-.23.442-.016.101-.04.22-.052.265a1.548 1.548 0 0 0-.017.324l.006.242.06-.189c.033-.103.095-.26.137-.349.07-.147.088-.166.204-.232.07-.039.134-.079.144-.088.01-.01.003-.074-.015-.143a2.879 2.879 0 0 1-.049-.244c-.023-.156-.06-.162-.188-.028Zm-8.36-.044c-.062.077-.038.522.028.522.036 0 .234.13.273.18.022.026.036.084.036.151.001.06.032.23.068.377.133.53.133.514-.002.67a1.186 1.186 0 0 0-.15.243.458.458 0 0 0-.056.27c.008.113.018.133.102.22.099.103.22.162.66.322.292.107.338.144.469.385.145.265.148.268.283.237.062-.014.117-.037.121-.05.005-.014-.056-.13-.135-.256a8.717 8.717 0 0 1-.568-1.157 2.192 2.192 0 0 0-.107-.254c-.014-.02-.089-.049-.17-.066-.17-.036-.227-.075-.311-.212l-.064-.103-.011-.537c-.014-.658-.018-.67-.24-.836-.197-.148-.193-.146-.226-.106Zm-4.357.342c-.002.037-.01.1-.016.14-.01.059-.008.065.012.035a.304.304 0 0 0 .015-.14c-.004-.063-.009-.076-.011-.035Zm4.028.485a.993.993 0 0 0-.069.123.742.742 0 0 1-.242.3c-.048.034-.09.075-.09.09a6.343 6.343 0 0 0-.023.221 1.547 1.547 0 0 1-.076.343l-.056.15.054.043.112.089c.133.103.206.529.125.722-.036.084-.05.325-.018.306.009-.006.054-.002.1.01.045.011.28.034.52.051.41.029.444.035.573.096a.943.943 0 0 0 .16.065c.024 0 .057.032.198.19.076.086.083.106.099.265.01.094.02.174.023.176a.812.812 0 0 0 .112.018c.075.009.093.007.063-.008-.033-.016-.029-.018.022-.008.034.007.066.022.07.033.011.032.067.022.067-.011 0-.065-.216-.457-.322-.584-.098-.118-.135-.144-.326-.231-.226-.103-.491-.183-.61-.183-.059 0-.083-.017-.156-.11-.147-.19-.252-.44-.252-.599 0-.117.068-.327.192-.587.12-.25.134-.409.055-.6a3.482 3.482 0 0 1-.077-.208c-.05-.157-.167-.24-.228-.162Zm9.035.054a.836.836 0 0 0-.187.704c.016.079.064.222.108.317.092.201.147.397.146.53 0 .204-.12.548-.205.593a.93.93 0 0 1-.153.046c-.332.076-.656.203-.823.323-.103.074-.442.628-.442.723 0 .006.069.004.153-.003.106-.01.16-.025.18-.05a.893.893 0 0 0 .11-.339c0-.113.103-.216.316-.316.232-.108.438-.144.827-.144.186 0 .33-.01.362-.025.067-.03.083-.106.054-.243a3.586 3.586 0 0 1-.043-.298c-.019-.18-.017-.197.033-.306a.804.804 0 0 1 .174-.232l.122-.115-.07-.21a4.323 4.323 0 0 1-.101-.366c-.032-.148-.038-.159-.117-.2-.06-.03-.113-.089-.187-.204a1.632 1.632 0 0 1-.116-.202c-.018-.06-.078-.052-.14.017Zm-12.532.787c0 .118.003.164.008.101a1.78 1.78 0 0 0 0-.214c-.005-.056-.008-.005-.008.113Zm11.773-.054c-.075.12-.086.13-.217.17a1.522 1.522 0 0 0-.182.068c-.055.03-.195.329-.324.692a2.486 2.486 0 0 1-.165.38c-.176.27-.33.549-.33.595 0 .01.03.03.068.044a.255.255 0 0 1 .103.07l.034.046.027-.052a.406.406 0 0 1 .052-.076c.013-.014.088-.126.165-.25.133-.21.148-.226.262-.278.067-.03.16-.066.206-.08.418-.129.646-.264.684-.405a.534.534 0 0 0 .02-.13c-.003-.05-.005-.048-.018.01-.011.054-.016.042-.029-.075a.442.442 0 0 0-.074-.225 4.522 4.522 0 0 1-.139-.22c-.076-.13-.078-.138-.064-.273a.624.624 0 0 0 .007-.139.943.943 0 0 0-.086.128Zm1.543.92c0 .01.015.147.033.304.02.168.027.333.018.403-.015.125-.09.321-.138.359-.025.02-.17.034-.914.093-.104.008-.157.017-.116.02l.074.005-.099.028c-.054.015-.15.034-.214.042-.105.013-.122.023-.16.09-.044.075-.044.077-.005.165.037.087.048.094.3.2.482.202.56.227.68.217.07-.007.198-.05.357-.123l.249-.113.228.008c.28.01.317.031.53.302.084.106.165.188.185.188.041 0 .128-.056.166-.106.07-.094.073-.809.005-1.008-.022-.064-.054-.125-.071-.134-.017-.01-.026-.031-.02-.048.015-.037-.128-.198-.25-.282a1.833 1.833 0 0 1-.21-.185.622.622 0 0 0-.144-.123.706.706 0 0 1-.154-.126c-.13-.126-.236-.195-.297-.195-.018 0-.033.008-.033.02Zm-10.662.066a2.818 2.818 0 0 0-.284.263c-.237.24-.36.338-.495.391-.065.026-.094.053-.112.103-.026.071-.103.86-.105 1.063 0 .112.004.12.104.22.058.056.118.097.133.091a.189.189 0 0 0 .062-.069c.05-.087.285-.351.35-.395.13-.087.547-.028.799.113.205.114.328.116.588.01.1-.042.192-.075.203-.075.042 0 .386-.175.434-.221a.548.548 0 0 0 .09-.126l.04-.078-.074-.067c-.075-.066-.098-.072-.252-.066a.468.468 0 0 1-.169-.033 1.515 1.515 0 0 0-.358-.055c-.67-.049-.645-.04-.741-.273-.056-.135-.059-.157-.054-.431.003-.16.01-.316.017-.349.01-.053.006-.059-.048-.058a.3.3 0 0 0-.128.042Zm8.119.761c0 .094.003.13.008.08.004-.05.004-.128 0-.172-.005-.043-.009-.002-.008.092Zm-.655.712c-.128.177-.484.606-.612.739a1.373 1.373 0 0 1-.291.187 1.09 1.09 0 0 0-.278.18 1.028 1.028 0 0 1-.522.304c-.116.032-.24.057-.275.055a2.544 2.544 0 0 1-.548-.12l-.042-.016.042.034c.024.019.031.034.018.035a.09.09 0 0 1-.053-.026 1.795 1.795 0 0 0-.111-.09 2.07 2.07 0 0 1-.17-.15 3.295 3.295 0 0 0-.35-.264c-.278-.187-.364-.266-.546-.509-.163-.215-.41-.488-.418-.461-.004.012-.057.022-.119.022-.061 0-.142.006-.179.014-.06.012-.066.02-.054.07.007.03.018.099.025.152.01.082.004.103-.038.14-.122.11-.426.162-.693.117a3.076 3.076 0 0 0-.194-.029c-.02 0-.031-.006-.026-.011.015-.016-.036-.067-.067-.067-.042 0-.036.038.008.05.02.005-.001.006-.047 0-.07-.008-.12.008-.296.095a3.759 3.759 0 0 1-.39.164c-.098.033-.247.084-.331.114l-.153.054-.216-.07c-.241-.08-.47-.129-.592-.129-.073 0-.096.017-.237.165a.991.991 0 0 0-.157.19c0 .013.056.095.124.18.126.157.15.216.15.37 0 .266-.466.34-1.265.201-.067-.011-.085-.002-.187.091l-.114.105.052.115c.029.063.1.176.16.25.058.075.12.155.135.177.031.046.044.043.526-.11a5.09 5.09 0 0 1 .337-.093c.316-.07.632-.146.81-.195.105-.03.217-.053.248-.053s.057-.01.057-.022c0-.059-.068-.144-.151-.19-.152-.085-.165-.104-.165-.23 0-.098.007-.117.058-.153.088-.063.163-.074.252-.036a.764.764 0 0 1 .289.267c.09.144.204.457.217.594a.674.674 0 0 0 .019.134c.004 0 .123-.049.266-.109.142-.06.28-.114.305-.12.046-.011.047-.018.04-.249-.01-.274-.014-.281-.225-.36-.147-.054-.168-.075-.19-.196-.055-.292.174-.41.394-.204l.09.084.021-.08c.012-.044.034-.132.048-.196.036-.162.087-.195.215-.137a.294.294 0 0 1 .12.09c.032.06.013.242-.032.312-.019.03-.024.051-.01.051.011 0 .027-.014.033-.032.01-.025.053-.032.205-.032h.193l.058.074c.033.042.058.1.058.135 0 .118-.16.216-.381.235-.08.006-.156.024-.168.04-.03.036-.064.284-.048.347.008.036.022.046.046.035.06-.025.298-.068.583-.105.15-.02.345-.05.432-.066.087-.017.239-.032.337-.034.135-.002.161-.007.106-.018-.041-.009-.059-.017-.04-.019.111-.009.016-.173-.167-.287a.501.501 0 0 1-.139-.114.304.304 0 0 1 .01-.125c.018-.073.038-.099.096-.127.094-.046.13-.045.25.01.153.068.244.174.475.551.064.105.075.114.132.102a.829.829 0 0 1 .137-.013h.074l-.056-.044c-.045-.036-.056-.063-.056-.137 0-.127.033-.148.229-.147.278 0 .593.114.772.277.075.069.085.072.099.037.013-.035.015-.034.016.008.003.078.034.073.13-.021.245-.238.747-.381.95-.272.045.025.05.102.014.206-.02.054-.039.072-.09.078-.035.005.005.01.089.012.09.002.153-.006.153-.018 0-.012.011-.022.026-.022.014 0 .048-.038.074-.085a2.65 2.65 0 0 1 .221-.285c.167-.191.279-.272.378-.272.108 0 .25.177.219.275-.018.058-.177.196-.225.196-.042 0-.124.124-.124.189 0 .076-.02.072.727.144a6.117 6.117 0 0 1 .756.117c.02 0 .033-.039.041-.12.021-.206-.01-.238-.285-.296a.994.994 0 0 1-.232-.081c-.082-.047-.09-.058-.088-.131a.22.22 0 0 1 .036-.117.193.193 0 0 0 .04-.07c.012-.06.417-.068.417-.008 0 .017.01.03.023.03.012 0 .017-.008.011-.018a1.109 1.109 0 0 1-.034-.17c-.028-.18-.01-.229.096-.274.136-.058.214.011.285.252.042.143.082.206.084.131.001-.065.141-.157.24-.157.107 0 .172.044.212.141.027.068.026.086-.015.203-.042.117-.055.133-.151.182a.525.525 0 0 1-.14.053.156.156 0 0 0-.074.03c-.035.026-.043.065-.052.269l-.01.238.084.022c.046.012.189.063.316.115.128.05.239.087.247.079a1.21 1.21 0 0 0 .045-.22.961.961 0 0 1 .101-.342c.087-.166.294-.376.402-.41.071-.02.087-.018.162.032.073.05.084.068.092.159.009.087.003.11-.038.149-.027.025-.044.05-.04.056.006.005-.028.027-.074.048-.064.03-.085.05-.085.089l-.001.066c0 .01.04.025.09.035.198.04.871.231.998.283.128.052.449.14.65.178.119.023.163-.004.308-.189.118-.149.19-.278.19-.34 0-.115-.229-.237-.393-.21-.338.053-.961.072-1.05.031-.062-.028-.117-.174-.117-.308 0-.074.02-.121.115-.262.063-.094.12-.197.128-.228.016-.065-.04-.165-.169-.3l-.078-.082-.172.012a1.327 1.327 0 0 0-.325.067c-.083.03-.163.055-.177.055a.703.703 0 0 0-.14.055c-.116.056-.117.056-.254.022a2.231 2.231 0 0 1-.318-.119c-.1-.046-.286-.126-.414-.178-.258-.105-.248-.104-.709-.036-.152.023-.17.021-.33-.033a1.025 1.025 0 0 1-.224-.1c-.048-.039-.054-.058-.054-.191v-.148l-.125-.065a.676.676 0 0 0-.158-.065c-.018 0-.087.075-.153.166Zm-5.992 1.535.098.064c.06.039.09.048.09.029 0-.028-.125-.1-.173-.1-.013 0-.02.003-.015.007Zm2.518.627a57.745 57.745 0 0 0-1.276.118 9.147 9.147 0 0 0-.58.115c-.392.091-1.152.32-1.444.436l-.158.063.003.082c.001.045.013.085.026.09.013.004.024.015.024.024 0 .02.266.494.292.521.022.023.243-.031.414-.101.153-.063.24-.086.521-.14.12-.022.364-.076.544-.119.18-.043.445-.09.59-.106.145-.015.363-.043.485-.062.122-.018.36-.043.53-.056a6.881 6.881 0 0 0 .572-.064c.008 0 .015-.009.015-.02 0-.024-.12-.082-.224-.106-.045-.011-.062-.021-.04-.023.036-.002.038-.005.011-.023-.045-.03-.14-.026-.218.008-.291.13-.485.18-.61.155-.156-.03-.212-.161-.11-.258.03-.027.133-.09.23-.14a.795.795 0 0 1 .374-.11c.217-.021.298-.014.57.049l.184.042.133.153c.175.201.249.273.283.273.045 0 .088-.089.104-.215.02-.153.054-.22.13-.248a.145.145 0 0 1 .128.003c.08.034.1.074.117.228a.983.983 0 0 0 .034.177c.018.048.027.052.077.032.03-.011.128-.09.216-.174.213-.202.4-.294.652-.322a1.23 1.23 0 0 1 .59.062c.352.119.438.203.35.34-.052.08-.138.117-.276.116a.368.368 0 0 1-.227-.064c-.097-.058-.123-.063-.302-.064-.208 0-.303.027-.371.104l-.04.046h.145c.08 0 .293.015.473.034l.516.052c.303.03.602.078.848.136.125.03.408.095.628.144.22.05.532.133.692.184.16.051.309.093.33.093.024 0 .056-.034.085-.091.025-.05.096-.163.157-.252.123-.18.18-.283.18-.328 0-.02-.093-.062-.269-.121a7.942 7.942 0 0 1-.437-.162 1.658 1.658 0 0 0-.253-.087.967.967 0 0 1-.174-.054c-.128-.056-.643-.18-.954-.231a11.011 11.011 0 0 0-.643-.077l-.613-.055c-.128-.011-.467-.02-.754-.02-.43 0-.535.005-.6.034a.539.539 0 0 1-.367-.002c-.087-.026-.219-.032-.669-.029-.308.002-.598.007-.644.01Zm-3.45.232a1.918 1.918 0 0 1-.241.045c-.162.025-.396.089-.79.218-.307.1-.567.19-.577.2-.023.022.22.284.33.355a.318.318 0 0 0 .115.05c.02 0 .173-.04.338-.088.26-.078.3-.095.303-.134l.007-.179a.414.414 0 0 1 .034-.168c.047-.057.212-.13.41-.178.206-.051.29-.087.204-.088-.027 0-.043-.01-.036-.021.013-.021-.077-.032-.097-.012Zm9.742.034c-.05.03-.006.054.257.138.135.043.26.094.277.114.043.05.059.297.022.329-.016.013-.028.03-.028.04 0 .017.176.078.469.161.202.057.207.058.3.022.07-.027.132-.08.234-.199.076-.089.13-.168.121-.176-.03-.027-.197-.082-.523-.174a20.805 20.805 0 0 1-.514-.15 2.964 2.964 0 0 0-.337-.085l-.194-.031a.145.145 0 0 0-.084.01Zm-4.919 1.12-.106.181-.08.135.11.101c.184.167.176.165.261.089.045-.04.084-.1.097-.15.022-.082.019-.09-.079-.233-.111-.164-.161-.194-.203-.123Z" clip-rule="evenodd"/>
</svg>
