<svg xmlns="http://www.w3.org/2000/svg" width="13" height="12" fill="currentColor" viewBox="0 0 13 12">
  <path fill-rule="evenodd" d="M4.992.007c.683.07 1.216.646 1.216 1.347l-.007.138c-.05.5-.374.919-.82 1.108l2.202.733h.871v-.812H7.371l.27-1.083h1.626v1.895l.372 1.115 1.194.24V5.5h-.844l.376 1.127L13 8.208v1.896h-.568c.015.088.026.178.026.271a1.625 1.625 0 1 1-3.25 0c0-.092.01-.183.026-.27h-.567l-.542.812H5.087l-.27-.813h-.78c.015.088.026.178.026.271a1.625 1.625 0 1 1-3.25 0c0-.093.01-.183.026-.27H0V9.02c0-.847.413-1.613 1.083-2.167h3.792l.993 2.979h1.677l1.831-2.746-.89-2.67H7.408L4.333 3.392v1.566h1.366c.298 0 .62.232.714.515l1.068 3.205-1.028.343-.992-2.979H.812A.815.815 0 0 1 0 5.229V3.062c0-.447.366-.812.813-.812H3.84a1.347 1.347 0 0 1-.333-.758L3.5 1.354C3.5.607 4.106 0 4.854 0l.138.007ZM1.971 10.105a.537.537 0 0 0 .466.812.542.542 0 0 0 .467-.813h-.933Zm8.395 0a.541.541 0 1 0 .934 0h-.934ZM1.518 7.936c-.282.322-.435.697-.435 1.084h3.372l-.361-1.084H1.518Zm7.87 1.084h2.529l-.001-.2-1.71-1.026L9.39 9.02ZM1.084 4.958H3.25V3.333H1.083v1.625ZM4.853 1a.354.354 0 1 0 .072.007L4.854 1Z" clip-rule="evenodd"/>
</svg>
