<svg xmlns="http://www.w3.org/2000/svg" width="14" height="14" fill="currentColor" viewBox="0 0 14 14">
  <path d="m10.465.652-.518 1.293 3.303.472v2.708h-2.24L10 7.647v5.603H8.917V7.44l1.36-3.398h1.89v-.686L9.533 2.98 8.025 6.75H2.958v.542c0 1.35-.62 2.584-1.625 3.32v2.638H.25V10c.953-.438 1.625-1.486 1.625-2.708V5.667h.388L.25 2.835l1.156-.585 2.43 3.417h3.456L9.458.25l1.007.402Z"/>
  <path d="M8.25 10.25v3h-1.2v-2.232l-2.573-.575a5.785 5.785 0 0 1-1.027 1.248v1.559h-1.2v-1.967A4.693 4.693 0 0 0 3.769 9.25l4.481 1Z"/>
</svg>
