<svg xmlns="http://www.w3.org/2000/svg" width="12" height="13" fill="currentColor" viewBox="0 0 12 13">
  <path d="M1.5 7.919c0 .022-.003.045-.004.067.001.022.004.045.004.068v1.682a.99.99 0 0 0 .21.615l.061.07.02.023.023.02.07.061a.99.99 0 0 0 .616.211H5v1.5H2.5l-.256-.013A2.501 2.501 0 0 1 .013 9.992L0 9.736V7.064h1.5v.855ZM12 9.736l-.013.256a2.501 2.501 0 0 1-2.231 2.231l-.256.013H7v-1.5h2.5a.992.992 0 0 0 .685-.271l.023-.02.02-.023c.17-.18.272-.42.272-.686V7.064H12v2.672Z"/>
  <path d="M2.854 7.856a.75.75 0 0 1 .958-.302l.068.036.305.17c.695.366 1.293.529 1.851.532.632.003 1.293-.2 2.062-.689l.066-.038a.75.75 0 0 1 .8 1.259l-.062.045c-.944.601-1.883.928-2.873.923-.86-.004-1.697-.26-2.545-.706l-.364-.203-.064-.042a.75.75 0 0 1-.202-.985ZM4 3.736a1 1 0 1 1 0 2 1 1 0 0 1 0-2Zm4 0a1 1 0 1 1 0 2 1 1 0 0 1 0-2Zm-3-2H2.5a.992.992 0 0 0-.686.272l-.023.02-.02.023a.992.992 0 0 0-.271.685V4.42c0 .022-.003.045-.004.067.001.022.004.045.004.068v.51H0V2.736A2.5 2.5 0 0 1 2.244.25L2.5.236H5v1.5ZM9.756.249A2.5 2.5 0 0 1 12 2.736v2.328h-1.5V2.736a.99.99 0 0 0-.21-.615l-.061-.07-.021-.024-.023-.02-.07-.06a.99.99 0 0 0-.615-.21H7v-1.5h2.5l.256.012Z"/>
</svg>
