<svg xmlns="http://www.w3.org/2000/svg" width="15" height="16" fill="currentColor" viewBox="0 0 15 16">
  <path d="M8.681 13.67a.726.726 0 0 1 .282 1.423 7.535 7.535 0 0 1-2.926 0 .725.725 0 0 1 .282-1.424 6.08 6.08 0 0 0 2.362 0Zm-7.218-2.774a.727.727 0 0 1 1.007.2 6.084 6.084 0 0 0 1.67 1.67.727.727 0 0 1-.808 1.207 7.538 7.538 0 0 1-2.068-2.07.726.726 0 0 1 .199-1.007Zm11.067.2a.727.727 0 0 1 1.207.808 7.539 7.539 0 0 1-2.07 2.069.726.726 0 0 1-.807-1.207 6.084 6.084 0 0 0 1.67-1.67Z"/>
  <path fill-rule="evenodd" d="M7.5 4.712c.187 0 .365.073.46.114.122.053.255.123.387.198.265.15.57.346.851.535a31.703 31.703 0 0 1 .99.693l.066.05.018.012.005.004h.002l-.36.487.36-.486a.606.606 0 0 1 .245.486v3.955H4.476V6.805c0-.192.091-.372.246-.486l.001-.001.005-.004.018-.012.066-.05a37.732 37.732 0 0 1 .99-.693c.281-.19.586-.385.851-.535a4.19 4.19 0 0 1 .387-.198c.095-.041.273-.114.46-.114Zm-.25 1.364a13.01 13.01 0 0 0-.774.487c-.27.182-.53.365-.722.502l-.069.048v2.438h3.63V7.113l-.069-.048c-.192-.137-.452-.32-.723-.502a13.01 13.01 0 0 0-.773-.487 3.288 3.288 0 0 0-.25-.13 3.288 3.288 0 0 0-.25.13Z" clip-rule="evenodd"/>
  <path d="M.143 6.273a.726.726 0 0 1 1.424.282 6.083 6.083 0 0 0 0 2.362.726.726 0 0 1-1.424.282 7.533 7.533 0 0 1 0-2.926ZM14.857 9.2a.726.726 0 0 1-1.424-.283l1.424.282Zm-.852-3.498a.726.726 0 0 1 .852.571 7.535 7.535 0 0 1 0 2.926l-1.424-.282a6.08 6.08 0 0 0 0-2.362.726.726 0 0 1 .572-.853ZM3.332 1.5a.726.726 0 0 1 .808 1.207 6.085 6.085 0 0 0-1.67 1.67.727.727 0 0 1-1.206-.809A7.538 7.538 0 0 1 3.332 1.5Zm7.328.2a.726.726 0 0 1 1.008-.2 7.538 7.538 0 0 1 2.069 2.068.727.727 0 0 1-1.207.808 6.085 6.085 0 0 0-1.67-1.67.727.727 0 0 1-.2-1.007ZM7.5.236c.5 0 .99.05 1.463.143a.726.726 0 0 1-.282 1.424 6.083 6.083 0 0 0-2.362 0l-.074.01A.726.726 0 0 1 6.037.38l.358-.062c.361-.053.73-.08 1.105-.08Z"/>
</svg>
