<svg xmlns="http://www.w3.org/2000/svg" width="12" height="12" fill="currentColor" viewBox="0 0 12 12">
  <path d="M1 11.236H.25v.75H1v-.75Zm10 0v.75a.75.75 0 0 0 .75-.75H11Zm0-6.923h.75a.75.75 0 0 0-.305-.603L11 4.313Zm-10 0L.554 3.71a.75.75 0 0 0-.304.603H1Zm0 6.923v.75h10v-1.5H1v.75Zm10 0h.75V4.313h-1.5v6.923H11Zm0-6.923.445-.603v-.001l-.003-.002a1.33 1.33 0 0 1-.045-.033 55.938 55.938 0 0 0-.625-.452 65.71 65.71 0 0 0-1.541-1.07 28.814 28.814 0 0 0-1.728-1.087 8.158 8.158 0 0 0-.75-.385C6.557.595 6.274.486 6 .486v1.5c-.066 0-.036-.013.155.07.16.07.364.175.607.313.484.275 1.065.647 1.632 1.028a64.202 64.202 0 0 1 1.984 1.39l.131.096.034.025.009.006.002.002.446-.603ZM6 1.236v-.75c-.274 0-.557.11-.753.194-.228.1-.485.234-.75.385-.532.302-1.149.698-1.728 1.087A65.65 65.65 0 0 0 .567 3.7l-.01.007-.002.002.445.604.446.603.002-.002c.002 0 .005-.003.009-.006a23.465 23.465 0 0 1 .165-.12 67.005 67.005 0 0 1 1.984-1.39 26.774 26.774 0 0 1 1.632-1.029c.243-.138.448-.244.607-.313.191-.083.221-.07.155-.07v-.75ZM1 4.313H.25v6.923h1.5V4.313H1Z"/>
</svg>
