<svg xmlns="http://www.w3.org/2000/svg" width="14" height="14" fill="currentColor" viewBox="0 0 14 14">
  <path d="m.898 9.668.33.073c.753.184 1.39.469 1.886.965s.781 1.133.965 1.887l.073.33.012.076a.75.75 0 0 1-1.464.293l-.018-.074-.06-.273c-.147-.598-.335-.946-.568-1.179-.233-.232-.581-.42-1.179-.567l-.272-.06-.075-.02a.75.75 0 0 1 .293-1.463l.077.012ZM7.612.242c.263.026.522.136.708.225.25.118.531.279.822.459.583.36 1.26.836 1.895 1.301a72.454 72.454 0 0 1 2.42 1.856l.01.009.003.002.063.057a.75.75 0 0 1 .217.528v8.307a.75.75 0 0 1-.75.75H7.5a.75.75 0 0 1 0-1.5h4.75V5.04a72.19 72.19 0 0 0-2.1-1.603 29.918 29.918 0 0 0-1.8-1.236 7.283 7.283 0 0 0-.671-.379 1.767 1.767 0 0 0-.179-.074c-.032.011-.09.032-.179.074a7.282 7.282 0 0 0-.672.379c-.534.331-1.175.779-1.8 1.236A70.962 70.962 0 0 0 2.75 5.04v1.446a.75.75 0 0 1-1.5 0V4.68l.005-.085a.75.75 0 0 1 .274-.5h.001l.003-.002.011-.01.04-.03a49.992 49.992 0 0 1 .686-.542 72.443 72.443 0 0 1 1.693-1.283c.636-.465 1.313-.94 1.895-1.301.29-.18.573-.341.822-.46.213-.1.52-.23.82-.23l.112.006Z"/>
  <path d="m1.093 7.742.266.037c1.317.202 2.403.659 3.213 1.469s1.267 1.896 1.47 3.213l.036.266.006.076a.75.75 0 0 1-1.48.186l-.014-.076-.068-.443c-.182-.988-.527-1.678-1.01-2.162-.484-.483-1.174-.829-2.162-1.01L.907 9.23l-.076-.013a.75.75 0 0 1 .186-1.48l.076.005Z"/>
</svg>
