<svg xmlns="http://www.w3.org/2000/svg" width="14" height="16" fill="currentColor" viewBox="0 0 14 16">
  <path d="M11 8.625H3v-1.25h8v1.25Zm0-3H3v-1.25h8v1.25Z"/>
  <path fill-rule="evenodd" d="M9.52.708c1.26 0 2.304.154 2.974.871.656.702.794 1.781.791 3.114v7.513c0 .493-.066.94-.216 1.307-.15.37-.404.703-.794.87-.394.17-.81.122-1.18-.037-.362-.157-.713-.431-1.045-.786h-.001c-.156-.167-.325-.22-.464-.213-.14.008-.302.08-.439.261l-.672.9-.002.002c-.37.489-.899.783-1.476.783s-1.104-.294-1.475-.783l-.001-.002-.674-.9c-.137-.182-.3-.254-.439-.261-.139-.008-.308.046-.464.213-.331.353-.681.627-1.044.783-.368.158-.785.207-1.18.037-.389-.168-.643-.5-.794-.87-.15-.368-.217-.816-.217-1.31V4.692c0-1.333.14-2.413.797-3.115.67-.716 1.714-.87 2.974-.87h5.04Zm-5.04 1.25c-1.259 0-1.79.183-2.062.475-.287.306-.46.908-.46 2.26V12.2c0 .395.055.668.124.84.066.16.127.19.133.193a.09.09 0 0 0 .039.004.453.453 0 0 0 .151-.04c.152-.066.366-.213.625-.49.39-.419.912-.636 1.446-.607.467.025.903.238 1.235.596l.136.163.674.9c.168.222.346.285.475.285.13 0 .309-.063.479-.287l.67-.898.137-.163a1.815 1.815 0 0 1 1.236-.596c.533-.03 1.054.188 1.445.607l.186.185c.178.162.328.258.442.307a.46.46 0 0 0 .151.042.086.086 0 0 0 .038-.004s.063-.026.131-.194c.07-.17.124-.443.124-.836V4.691l-.007-.472c-.034-1.026-.198-1.52-.448-1.787-.272-.291-.803-.474-2.06-.474H4.48Z" clip-rule="evenodd"/>
</svg>
