<svg xmlns="http://www.w3.org/2000/svg" width="11" height="15" fill="currentColor" viewBox="0 0 11 15">
  <path d="M5.5 6.455a.973.973 0 0 1 .49 1.818v1.095c0 .14-.114.254-.255.255h-.469a.256.256 0 0 1-.256-.255V8.272a.973.973 0 0 1 .49-1.817Z"/>
  <path fill-rule="evenodd" d="M5.753.245c.494.035.976.173 1.415.405.5.265.93.646 1.25 1.11l.116.178c.254.42.417.89.476 1.379l.02.21c.02.341-.012.684-.091 1.017A5.413 5.413 0 0 1 11 8.79l-.007.28c-.147 2.877-2.55 5.165-5.493 5.165l-.283-.007C2.405 14.09.15 11.856.007 9.072L0 8.792c0-1.719.804-3.25 2.06-4.248A3.469 3.469 0 0 1 2 3.239l.037-.208c.1-.48.3-.935.59-1.335l.13-.167A3.53 3.53 0 0 1 3.903.614l.193-.09A3.569 3.569 0 0 1 5.54.237l.213.01ZM5.5 4.62c-2.337 0-4.22 1.874-4.22 4.171 0 2.298 1.882 4.172 4.22 4.172s4.22-1.874 4.22-4.172c0-2.297-1.883-4.17-4.22-4.17Zm.026-3.111a2.284 2.284 0 0 0-1.047.242 2.252 2.252 0 0 0-.732.583l-.082.107a2.214 2.214 0 0 0-.375.848l-.023.132c-.02.134-.027.27-.021.405A5.527 5.527 0 0 1 5.5 3.348l.283.006c.7.036 1.364.201 1.971.472a2.192 2.192 0 0 0 0-.223L7.74 3.47a2.209 2.209 0 0 0-.303-.876l-.073-.113a2.248 2.248 0 0 0-1.703-.966l-.136-.006Z" clip-rule="evenodd"/>
</svg>
