<svg xmlns="http://www.w3.org/2000/svg" width="13" height="16" fill="currentColor" viewBox="0 0 13 16">
  <path fill-rule="evenodd" d="M8.893 7.625H9.9v.75H8.893v.75H9.9v.75H8.893v1.174a.501.501 0 0 1-.89.314l-1.2-1.488H5.126v1.352h-1V9.875H3.5v-.75h.625v-.75H3.5v-.75h.625v-1.25l.006-.078a.502.502 0 0 1 .884-.235l1.26 1.563h1.618v-1.75h1v1.75Zm-3.768 1.5h1.074l-.604-.75h-.47v.75Zm2.36 0h.408v-.75H6.88l.604.75Z" clip-rule="evenodd"/>
  <path fill-rule="evenodd" d="m9.5.5-.667 2.084c2.155 1.612 3.667 5.389 3.667 9.791 0 1.726-2.686 3.125-6 3.125-3.313 0-6-1.399-6-3.125 0-4.402 1.512-8.18 3.667-9.791L3.5.5h6ZM5.165 1.75l.455 1.422c-2.198.834-3.92 4.707-3.92 9.203 0 .661 1.822 1.875 4.8 1.875 2.978 0 4.8-1.214 4.8-1.875 0-4.496-1.722-8.369-3.92-9.203l.455-1.422h-2.67Z" clip-rule="evenodd"/>
</svg>
