<svg xmlns="http://www.w3.org/2000/svg" width="12" height="15" fill="currentColor" viewBox="0 0 12 15">
  <path d="M6.5 4.25v1A1.5 1.5 0 0 1 8 6.75H7a.5.5 0 0 0-.5-.5h-1a.5.5 0 1 0 0 1h1a1.5 1.5 0 0 1 1.492 1.347L8 8.75c0 .828-.672 1.499-1.5 1.5v1h-1v-1A1.5 1.5 0 0 1 4 8.75h1a.5.5 0 0 0 .5.5h.999a.5.5 0 0 0 .001-1h-1a1.5 1.5 0 0 1 0-3v-1h1Z"/>
  <path fill-rule="evenodd" d="m9 0-.667 2.084C10.488 3.696 12 7.473 12 11.875 12 13.601 9.314 15 6 15c-3.313 0-6-1.399-6-3.125 0-4.402 1.512-8.18 3.667-9.791L3 0h6ZM4.665 1.25l.455 1.422c-2.198.834-3.92 4.707-3.92 9.203 0 .661 1.822 1.875 4.8 1.875 2.978 0 4.8-1.214 4.8-1.875 0-4.496-1.722-8.369-3.92-9.203l.455-1.422h-2.67Z" clip-rule="evenodd"/>
</svg>
