<svg xmlns="http://www.w3.org/2000/svg" width="15" height="15" fill="currentColor" viewBox="0 0 15 15">
  <path fill-rule="evenodd" d="M1.736 5.772a.626.626 0 0 1 .695.198l2.13 2.642h3.055V5.737h1.25v2.875h.824v1.25h-.824v.627h.824v1.25h-.824v2.435a.627.627 0 0 1-1.045.463l-.066-.072-2.278-2.826H2.569v2.733H1.32v-2.733H.25v-1.25h1.07v-.627H.25v-1.25h1.07v-2.25l.007-.097a.627.627 0 0 1 .41-.493Zm5.88 6.63v-.663h-.534l.534.663ZM2.57 10.49h1.9l-.505-.627H2.569v.627Zm3.505 0h1.542v-.627H5.568l.506.627ZM2.57 8.612h.387l-.387-.48v.48Z" clip-rule="evenodd"/>
  <path d="M6.947 3.144a4.483 4.483 0 0 1 4.483 4.482l-.625-.001h-.626a3.232 3.232 0 0 0-3.232-3.231l.001-.625v-.625Z"/>
  <path d="M6.947 0a7.627 7.627 0 0 1 7.625 7.626l-.625-.001h-.625A6.378 6.378 0 0 0 6.947 1.25l.001-.625V0Z"/>
</svg>
