<svg xmlns="http://www.w3.org/2000/svg" width="12" height="13" fill="currentColor" viewBox="0 0 12 13">
  <path fill-rule="evenodd" d="M10.894 4.154h.713v1.25h-.713V6.46h.713v1.25h-.713v3.99a.626.626 0 0 1-1.112.393L6.25 7.71H1.965v4.413H.715V7.711H0v-1.25h.715V5.404H0v-1.25h.715V.625L.723.528A.626.626 0 0 1 1.826.233l3.161 3.92h4.657V0h1.25v4.154ZM7.854 7.71l1.79 2.219V7.71h-1.79Zm-5.89-2.307V6.46h3.278L4.39 5.404H1.965Zm4.031 0 .853 1.057h2.796V5.404H5.995Zm-4.03-1.25h1.417L1.965 2.396v1.758Z" clip-rule="evenodd"/>
</svg>
