<svg xmlns="http://www.w3.org/2000/svg" width="13" height="13" fill="currentColor" viewBox="0 0 13 13">
  <path fill-rule="evenodd" d="M5.958 3.792H4.875v1.625l.11.005c.547.055.973.517.973 1.078v3.25h1.625c.86-1.423 1.436-3.315 1.584-5.424l-1.584-.263V3.25h2.709c.633 1.176 1.03 2.78 1.074 4.558A2.708 2.708 0 0 1 13 10.292v.541h-.836c.015.088.024.179.024.271a1.896 1.896 0 0 1-3.792 0c0-.092.008-.183.023-.271H4.581c.015.088.023.179.023.271a1.896 1.896 0 0 1-3.792 0c0-.092.009-.183.024-.271H0v-.541a2.7 2.7 0 0 1 1.083-2.163V6.5H0V2.708h2.167V0h3.791v3.792Zm-4.013 7.041a.791.791 0 0 0-.05.271.813.813 0 0 0 1.626 0 .791.791 0 0 0-.05-.271H1.945Zm7.584 0a.79.79 0 0 0-.05.271.813.813 0 0 0 1.626 0 .792.792 0 0 0-.05-.271H9.529ZM2.708 8.667c-.706 0-1.309.453-1.532 1.083H4.24a1.628 1.628 0 0 0-1.532-1.083Zm7.366-2.764A12.926 12.926 0 0 1 8.81 9.75h3.014a1.627 1.627 0 0 0-1.531-1.083v-.542c0-.766-.076-1.52-.218-2.222ZM2.167 7.638a2.703 2.703 0 0 1 2.708 1.031V6.5H2.167v1.138ZM1.083 3.792v1.625h2.709V3.792H1.083ZM3.25 2.708h1.625V1.083H3.25v1.625Z" clip-rule="evenodd"/>
</svg>
