<svg xmlns="http://www.w3.org/2000/svg" width="17" height="18" fill="currentColor" viewBox="0 0 17 18">
  <path d="M10.422 14.007a.655.655 0 1 0-1.23.45.655.655 0 0 0 1.23-.45Zm-4.117-1.585a.653.653 0 1 0-.84 1.001.653.653 0 0 0 .84-1Zm7.538-2.758a.654.654 0 1 0-.224 1.288.654.654 0 0 0 .224-1.288ZM3.383 7.049a.654.654 0 1 0-.227 1.287.654.654 0 0 0 .227-1.287Zm8.153-2.474a.655.655 0 0 0-.84 1.004.655.655 0 0 0 .84-1.004ZM7.192 3.116a.654.654 0 1 0 0 1.308.654.654 0 0 0 0-1.308Z"/>
  <path fill-rule="evenodd" d="M9.976.63a8.499 8.499 0 1 0-2.952 16.74A8.499 8.499 0 0 0 9.976.63Zm3.461 13.438a7.069 7.069 0 0 1-5.463 1.994l1.01-5.73 4.453 3.736Zm-6.859 1.747a7.062 7.062 0 0 1-4.45-3.741l5.462-1.989-1.012 5.73Zm8.78-8.558a7.042 7.042 0 0 1-1.01 5.727L9.896 9.246l5.464-1.99ZM7.105 8.754l-5.463 1.99A7.037 7.037 0 0 1 2.65 5.017l4.454 3.736Zm3.318-6.57a7.068 7.068 0 0 1 4.45 3.743L9.41 7.916l1.013-5.731Zm-1.396-.246L8.016 7.67 3.562 3.933a7.07 7.07 0 0 1 5.464-1.995Z" clip-rule="evenodd"/>
</svg>
