<svg xmlns="http://www.w3.org/2000/svg" width="15" height="13" fill="currentColor" viewBox="0 0 15 13">
  <path d="M8.938 8a.937.937 0 1 1 0 1.875.937.937 0 0 1 0-1.875Zm-.782-1c.414 0 .75.224.75.5s-.336.5-.75.5h-2.5c-.414 0-.75-.224-.75-.5s.336-.5.75-.5h2.5Z"/>
  <path fill-rule="evenodd" d="M4.063 1.562h.312v-.313C4.375.562 4.938 0 5.625 0h3.75c.687 0 1.25.562 1.25 1.249v.313h.313L11.25 0h.625v2.187l-1.25.626-.938.937H8.126v.948c1.172.041 2.317.197 3.28.468l.47.146.22.221a6.444 6.444 0 0 1 1.8 4.258c.69.296 1.105 1.271 1.105 2.708h-.938c0-1.035-.28-1.875-.624-1.875-.346 0-.625.84-.626 1.875h-.937c0-1.422.408-2.391 1.084-2.698a5.464 5.464 0 0 0-1.084-3.078v1.089l-1.25 3.75h-6.25l-1.25-3.75v-1.09a5.462 5.462 0 0 0-1.084 3.079c.676.307 1.084 1.276 1.084 2.698h-.938c0-1.035-.28-1.875-.624-1.875-.346 0-.625.84-.625 1.875H0c0-1.437.416-2.412 1.104-2.708a6.459 6.459 0 0 1 2.021-4.48l.47-.145c.963-.27 2.108-.427 3.28-.468V3.75H5.312l-.937-.938-1.25-.625V0h.625l.313 1.562ZM7.5 5.938c-1.121 0-2.216.114-3.125.32v1.351l.901 2.704h4.449l.9-2.704V6.258c-.91-.206-2.003-.32-3.125-.32Zm-1.25-4.69a.625.625 0 1 0 0 1.25.625.625 0 0 0 0-1.25Zm2.5 0A.626.626 0 1 0 8.751 2.5a.626.626 0 0 0-.001-1.25Z" clip-rule="evenodd"/>
</svg>
