<svg xmlns="http://www.w3.org/2000/svg" width="13" height="13" fill="currentColor" viewBox="0 0 13 13">
  <path fill-rule="evenodd" d="M7.046 2.363V4.09c.124.037.243.087.355.147l1.22-1.22.772.772-1.22 1.22c.06.112.11.23.147.355h1.726v1.091H8.32a1.895 1.895 0 0 1-.147.357l1.22 1.22-.772.77-1.22-1.219c-.112.06-.23.11-.355.147v1.725H5.954V7.73a1.919 1.919 0 0 1-.355-.147l-1.22 1.22-.772-.772 1.22-1.22a1.873 1.873 0 0 1-.147-.356H2.954v-1.09H4.68a1.89 1.89 0 0 1 .147-.356l-1.22-1.22.772-.771 1.22 1.22c.112-.061.23-.11.355-.148V2.363h1.092ZM6.5 5.091a.818.818 0 1 0 0 1.637.818.818 0 0 0 0-1.637Z" clip-rule="evenodd"/>
  <path fill-rule="evenodd" d="M13 0v11.917h-1.083V13h-1.625v-1.083H2.708V13H1.083v-1.083H0V0h13ZM1.083 1.083v9.75h10.834v-9.75H1.083Z" clip-rule="evenodd"/>
</svg>
