<svg xmlns="http://www.w3.org/2000/svg" width="14" height="15" fill="currentColor" viewBox="0 0 14 15">
  <path fill-rule="evenodd" d="M7.75.244A6.59 6.59 0 0 1 14 6.824l-.008.34a6.589 6.589 0 0 1-6.58 6.249l-.339-.009a6.556 6.556 0 0 1-3.709-1.381.83.83 0 0 1-.076.09l-1.882 1.882-.062.057A.824.824 0 0 1 .24 12.83l1.882-1.883.063-.056.027-.02a6.555 6.555 0 0 1-1.38-3.709l-.008-.338A6.59 6.59 0 0 1 7.412.236l.339.008Zm-.338 1.404a5.177 5.177 0 1 0 .001 10.355 5.177 5.177 0 0 0 0-10.355Z" clip-rule="evenodd"/>
</svg>
