<svg xmlns="http://www.w3.org/2000/svg" width="10" height="11" fill="currentColor" viewBox="0 0 10 11">
  <path d="M1.664 10.236H0V8.54h1.664v1.697ZM.485.236a9.47 9.47 0 0 1 3.542.848 10.153 10.153 0 0 1 3.045 2.137 10.358 10.358 0 0 1 2.096 3.102A9.963 9.963 0 0 1 10 9.935l-.714.027-.715.028a8.481 8.481 0 0 0-.71-3.073 8.897 8.897 0 0 0-1.8-2.665 8.72 8.72 0 0 0-2.615-1.836A8.064 8.064 0 0 0 .43 1.693L.485.236ZM.63 4.128a5.536 5.536 0 0 1 2.07.496 5.916 5.916 0 0 1 1.774 1.244 6.035 6.035 0 0 1 1.221 1.808c.293.671.46 1.388.486 2.11l-1.43.056a4.343 4.343 0 0 0-.363-1.573 4.576 4.576 0 0 0-.925-1.37 4.485 4.485 0 0 0-1.345-.943 4.13 4.13 0 0 0-1.543-.37l.028-.73.027-.728Z"/>
</svg>
