<svg xmlns="http://www.w3.org/2000/svg" width="14" height="15" fill="currentColor" viewBox="0 0 14 15">
  <path d="M4.958 5.125a.583.583 0 1 0 0 1.167.583.583 0 0 0 0-1.167Z"/>
  <path fill-rule="evenodd" d="M8.167.75v2.333H7V1.917H5.833v1.166h-1.75a1.75 1.75 0 0 0-1.75 1.75H1.167V3.667H0v3.5h1.167V6h1.166v5.25H0v3.5h12.833v-2.333H14V11.25H7.875L7 7.75c0-.644.523-1.167 1.167-1.167h.583l.583 1.167H10.5l.583 1.75h.584V7.75h1.166V4.833a1.75 1.75 0 0 0-1.75-1.75h-1.75V.75H8.167Zm3.5 11.667v1.166h-10.5v-1.166h10.5Zm-.584-8.167c.321 0 .584.262.584.583v1.75h-1.612l-.583-1.166H8.167A2.337 2.337 0 0 0 5.833 7.75v.144l.84 3.356H3.5v-1.167h1.167V8.917H3.5V4.833c0-.322.261-.583.583-.583h7Z" clip-rule="evenodd"/>
</svg>
