<svg xmlns="http://www.w3.org/2000/svg" width="12" height="14" fill="currentColor" viewBox="0 0 12 14">
  <path d="M4.6 11.501h4.6v-1.15H4.6v1.15Zm0-3.451V9.2h4.6V8.05H4.6Z"/>
  <path fill-rule="evenodd" d="M2.875 0C1.923 0 1.15.773 1.15 1.726V2.3L0 6.9v6.9h11.501V6.9l-.863-3.45h.863V1.726C11.501.773 10.728 0 9.775 0h-6.9Zm0 1.15c.317 0 .575.258.575.576V3.45h6.002l.899 3.592v5.608h-6.9V6.9L2.3 2.3v-.574c0-.318.257-.575.574-.576Zm-.574 5.892v5.608H1.15V7.042l.575-2.3.575 2.3ZM9.775 1.15c.318 0 .576.258.576.576V2.3H4.6v-.574a1.72 1.72 0 0 0-.106-.576h5.28Z" clip-rule="evenodd"/>
</svg>
