<svg xmlns="http://www.w3.org/2000/svg" width="14" height="13" fill="currentColor" viewBox="0 0 14 13">
  <path d="M6.063 2.125c.733 0 1.328.238 1.328.531 0 .294-.595.531-1.329.531-.733 0-1.328-.237-1.328-.53 0-.294.595-.532 1.329-.532Z"/>
  <path fill-rule="evenodd" d="M6.063 0C10.17 0 13.5 1.665 13.5 3.719V9.03c0 2.054-3.33 3.719-7.438 3.719v-1.063C3.128 11.688.75 10.498.75 9.031V2.656C.75 1.19 3.128 0 6.063 0Zm6.375 5.627c-1.127.939-3.055 1.608-5.313 1.77v4.248c.372-.028.725-.071 1.063-.125V9.433A14.92 14.92 0 0 0 9.25 9.26v2.038a8.79 8.79 0 0 0 1.063-.346V9.008a12.12 12.12 0 0 0 1.062-.348v1.753c.689-.448 1.063-.948 1.063-1.382V5.627Zm-2.126-1.382c-.969.647-2.509 1.067-4.25 1.067-1.74 0-3.28-.42-4.25-1.067v4.786c0 .335.576.834 1.594 1.185V7.694c.343.073.697.136 1.063.18v2.613a9.072 9.072 0 0 0 1.593.138v-4.25c1.738 0 3.18-.3 4.25-.73v-1.4Zm1.011-1.94c.03.115.052.232.052.351v2.445c.687-.45 1.063-.949 1.063-1.382 0-.444-.395-.957-1.115-1.414Zm-5.26-1.243c-2.348 0-4.25.714-4.25 1.594 0 .88 1.902 1.594 4.25 1.594 2.347 0 4.25-.714 4.25-1.594 0-.88-1.904-1.593-4.25-1.594Z" clip-rule="evenodd"/>
</svg>
