<svg xmlns="http://www.w3.org/2000/svg" width="13" height="13" fill="currentColor" viewBox="0 0 13 13">
  <path d="M5.5 4.556c.414 0 .75.322.75.72v2.88c0 .398-.336.72-.75.72s-.75-.322-.75-.72v-2.88c0-.398.336-.72.75-.72Zm2 0c.414 0 .75.322.75.72v2.88c0 .398-.336.72-.75.72s-.75-.322-.75-.72v-2.88c0-.398.336-.72.75-.72Z"/>
  <path fill-rule="evenodd" d="M7.951.236c1.191 0 2.16.887 2.244 2.003l.005.226v.034H13v1.44h-1.417l-.61 6.336c-.107 1.11-1.078 1.961-2.24 1.961H4.267c-1.163 0-2.134-.85-2.24-1.961l-.611-6.336H0V2.5h2.8v-.034c-.04-1.221.978-2.23 2.249-2.23H7.95Zm-4.43 9.907a.74.74 0 0 0 .747.653h4.464a.74.74 0 0 0 .747-.653l.598-6.204H2.923l.598 6.204Zm1.528-8.467c-.424 0-.763.336-.75.743l.003.08h4.396l.003-.08-.002-.075a.738.738 0 0 0-.748-.668H5.05Z" clip-rule="evenodd"/>
</svg>
