<svg xmlns="http://www.w3.org/2000/svg" width="15" height="12" fill="currentColor" viewBox="0 0 15 12">
  <path d="M3.87 8.265c-.435.262-.887.826-1.255 1.401-.026.041-.05.084-.075.124h6.44v1.25H.5l.414-.889v-.002h.001l.003-.006.01-.02.035-.072c.03-.06.073-.147.129-.252.11-.21.272-.496.47-.807.382-.596.963-1.375 1.66-1.797l.647 1.07Zm8.235-2.577v.686l.688.001v1.25l-.688.001v.686l-.625.001h-.625v-.688l-.688.001V6.374l.688.001v-.688h1.25Z"/>
  <path fill-rule="evenodd" d="M11.48 3.75a3.25 3.25 0 1 1 0 6.5 3.25 3.25 0 0 1 0-6.5Zm0 1.25a2 2 0 1 0 0 4 2 2 0 0 0 0-4ZM5.98.5c1.381 0 2.5 1.194 2.5 2.667l-.012.269C8.34 4.744 7.275 5.5 5.98 5.5c-1.294 0-2.359-.756-2.487-2.064l-.013-.269C3.48 1.694 4.6.5 5.98.5Zm0 1.25c-.615 0-1.25.557-1.25 1.417 0 .396.14.631.31.781.188.166.503.302.94.302.438 0 .753-.136.94-.302.171-.15.31-.385.31-.781 0-.86-.634-1.417-1.25-1.417Z" clip-rule="evenodd"/>
</svg>
