<svg xmlns="http://www.w3.org/2000/svg" width="14" height="15" fill="currentColor" viewBox="0 0 14 15">
  <path fill-rule="evenodd" d="M5.956 9.817c.817 0 1.618.219 2.398.631l.334.19c.698.421 1.279 1.2 1.66 1.797a11.584 11.584 0 0 1 .6 1.058l.035.072.01.02.003.006h.001c-.003.002-.042.022-.566.266l.566-.263.414.888H.5l.414-.888.002-.003c0-.002 0-.004.002-.006l.01-.02.035-.072c.03-.06.073-.147.129-.252.11-.209.272-.496.47-.806.358-.56.891-1.28 1.532-1.714l.129-.083c.885-.535 1.799-.82 2.733-.82Zm0 1.25c-.67 0-1.362.202-2.087.64l-.163.112c-.382.292-.769.786-1.09 1.29-.027.04-.051.083-.076.123h6.831l-.075-.124c-.368-.575-.82-1.139-1.254-1.401l-.27-.153c-.628-.332-1.23-.486-1.816-.487Zm.229-6.147c1.128.122 2.008 1.138 2.008 2.374l-.01.24c-.115 1.171-1.068 1.848-2.227 1.848l-.228-.009c-1.054-.083-1.89-.746-1.998-1.839l-.011-.24c0-1.318 1.002-2.387 2.237-2.387l.229.013Zm-.229 1.237c-.47 0-.987.432-.987 1.137 0 .318.11.493.232.602.14.124.39.236.755.236.364 0 .614-.112.755-.236.123-.109.232-.284.232-.602 0-.705-.516-1.137-.987-1.137Z" clip-rule="evenodd"/>
  <path d="M7.666 2.719a3.344 3.344 0 0 1 3.178 3.338.625.625 0 0 1-1.25 0 2.092 2.092 0 0 0-1.887-2.082l-.205-.01-.127-.014a.624.624 0 0 1 0-1.223l.127-.013.164.004Z"/>
  <path fill-rule="evenodd" d="M7.501.5a5.559 5.559 0 0 1 5.558 5.558l-.625-.001h-.626A4.305 4.305 0 0 0 7.5 1.75V.5Zm5.558 5.558a.626.626 0 0 1-1.251-.001h1.25Z" clip-rule="evenodd"/>
  <path d="M7.501 1.75a.625.625 0 0 1 0-1.25v1.25Z"/>
</svg>
