<svg xmlns="http://www.w3.org/2000/svg" width="12" height="12" fill="currentColor" viewBox="0 0 12 12">
  <path d="M3.54 6.91c2.49-1.27 5.04-1.35 7.536-.24l.499.24.107.068a.626.626 0 0 1-.557 1.09l-.118-.046-.431-.206c-2.154-.961-4.313-.892-6.467.206l-.147.082c-.73.426-1.402 1.21-1.92 1.968a12.523 12.523 0 0 0-.798 1.344l-.041.084-.01.02-.002.004v.001l-.065.108a.625.625 0 0 1-1.067-.64l.006-.012.014-.028.049-.1a13.757 13.757 0 0 1 .882-1.487c.544-.796 1.346-1.775 2.332-2.347l.199-.11Z"/>
  <path fill-rule="evenodd" d="M7.84.01c1.197.11 2.129 1.007 2.13 2.097l-.012.222C9.835 3.448 8.826 4.74 7.598 4.74l-.122-.004c-1.17-.082-2.118-1.325-2.235-2.408l-.013-.222C5.228.943 6.29 0 7.598 0l.243.01Zm-.242 1.24c-.76 0-1.12.518-1.12.856 0 .237.127.62.404.952.274.327.545.432.716.432.172 0 .443-.104.717-.432.277-.332.404-.715.404-.952 0-.338-.36-.856-1.12-.856Z" clip-rule="evenodd"/>
</svg>
