<svg xmlns="http://www.w3.org/2000/svg" width="12" height="10" fill="currentColor" viewBox="0 0 12 10">
  <path fill-rule="evenodd" d="M6.206 4.91c.817 0 1.618.219 2.398.631l.334.19c.698.42 1.28 1.2 1.66 1.796a11.59 11.59 0 0 1 .6 1.059l.035.071.01.02.003.007h.001c-.003.002-.042.022-.566.266l.566-.263.414.888H.75l.414-.888.002-.003c0-.002 0-.004.002-.006l.01-.02.035-.072c.03-.06.073-.147.129-.252.11-.21.272-.496.47-.807.358-.559.891-1.278 1.532-1.714l.129-.083c.885-.534 1.799-.82 2.733-.82Zm0 1.25c-.67 0-1.362.202-2.087.64l-.163.112c-.382.292-.769.786-1.09 1.29-.027.04-.051.083-.076.123h6.831c-.025-.04-.049-.083-.075-.124-.368-.575-.82-1.139-1.254-1.401l-.27-.154c-.628-.331-1.23-.486-1.816-.486ZM6.435.013C7.563.135 8.443 1.15 8.443 2.387l-.01.24c-.115 1.17-1.068 1.848-2.227 1.848l-.228-.01c-1.054-.083-1.89-.745-1.998-1.838l-.011-.24C3.969 1.069 4.97 0 6.206 0l.229.013ZM6.206 1.25c-.47 0-.987.432-.987 1.137 0 .318.11.493.232.601.14.124.39.237.755.237.364 0 .614-.113.755-.237.123-.108.232-.283.232-.601 0-.705-.516-1.137-.987-1.137Z" clip-rule="evenodd"/>
</svg>
