<svg xmlns="http://www.w3.org/2000/svg" width="12" height="14" fill="currentColor" viewBox="0 0 12 14">
  <path d="M7.446 10.316c1.633 0 2.39 2.028 1.156 3.098l-.819-.945a.514.514 0 0 0-.337-.903H.5v-1.25h6.946Z"/>
  <path fill-rule="evenodd" d="M4 4.941a2 2 0 0 1 2 2c0 1.105-.895 2.5-2 2.5s-2-1.395-2-2.5a2 2 0 0 1 2-2Zm0 1.25a.75.75 0 0 0-.75.75c0 .25.115.618.339.92.233.313.404.33.411.33.007 0 .178-.017.411-.33.224-.302.339-.67.339-.92a.75.75 0 0 0-.75-.75Z" clip-rule="evenodd"/>
  <path d="M6.766.257a5.138 5.138 0 0 1 3.379 1.498 5.138 5.138 0 0 1 1.497 3.379l.007.253a.626.626 0 0 1-1.238.125l-.013-.126a3.886 3.886 0 0 0-3.694-3.881L6.513 1.5l-.126-.013a.625.625 0 0 1 0-1.223L6.513.25l.253.007Z"/>
  <path fill-rule="evenodd" d="M6.665 2.28a3.113 3.113 0 0 1 2.958 3.107l-.625-.001h-.625a1.863 1.863 0 0 0-1.678-1.85l-.182-.01-.126-.012a.625.625 0 0 1 0-1.225l.126-.013.152.003Zm2.958 3.107a.625.625 0 0 1-1.25 0h1.25Z" clip-rule="evenodd"/>
</svg>
