<svg xmlns="http://www.w3.org/2000/svg" width="13" height="18" fill="currentColor" viewBox="0 0 13 18">
  <path d="M7.634 12.174a.25.25 0 0 1 .176.465l-.119.055c-.558.24-1.192.24-1.75 0l-.12-.055-.042-.027a.25.25 0 0 1-.069-.309.25.25 0 0 1 .288-.129l.048.018.185.08c.44.159.93.132 1.355-.08l.048-.018Zm1.438-1.768a.25.25 0 0 1 0 .49l-.05.005H4.61a.25.25 0 0 1 0-.5h4.411l.051.005ZM4.09 7.326c.422-.14.872-.158 1.3-.053l.182.053.046.02a.25.25 0 0 1-.154.465l-.05-.01-.143-.043a1.84 1.84 0 0 0-.231-.04c.007.02.012.042.012.065a.22.22 0 1 1-.43-.066 1.85 1.85 0 0 0-.373.083.25.25 0 0 1-.158-.475Zm3.97 0c.421-.14.872-.158 1.3-.053l.182.053.046.02a.25.25 0 0 1-.154.465l-.05-.01-.143-.043a1.834 1.834 0 0 0-.23-.04.219.219 0 0 1-.21.285.22.22 0 0 1-.21-.286 1.92 1.92 0 0 0-.372.083.25.25 0 0 1-.158-.475Zm-.934-4.043.088.089-.177.176-.662-.66-.75.747.309.309.442-.44.53.53-.265.264-.706.706-.266-.264-.574-.574-.837.838-.09.088-.087-.089-.662-.662-.088-.087.177-.177.66.662.354-.354.396-.396-.308-.308-.174.176-.266.266-.53-.53.264-.266.442-.442.265-.264.837.838.84-.837.088-.09.75.75Zm2.758.738.216-.033.43-.071.02.124.076.46.02.124-.246.04-.022-.122-.056-.338-.183.029-.214.035.015.092.061-.01.246-.04.081.493-.246.041-.555.09-.095-.585-.646.107-.02-.123-.077-.463-.02-.122.247-.041.02.124.055.337.4-.067-.015-.09-.308.051-.08-.493.801-.132.095.583Z"/>
  <path fill-rule="evenodd" d="M6.656.013c1.483-.08 2.658.187 3.85 1.18l.447.39c.398.362.65.649.791.878a.888.888 0 0 1 .154.453.466.466 0 0 1-.189.381.73.73 0 0 1-.325.125 1.332 1.332 0 0 1-.157.014c.601.848.447 1.556.442 1.577 0 0-.083.647-.178 1.46.083.02.178.048.274.095.142.07.294.177.409.345.116.17.185.386.185.652 0 .407-.13.716-.239.98-.111.269-.202.493-.202.785a.783.783 0 0 1-.192.48c-.102.125-.23.237-.349.326-.1.076-.2.139-.282.188-.214.742-.667 1.452-1.213 2.062.056.019.123.044.19.073.192.082.474.22.796.38.324.162.695.352 1.067.542.371.19.743.38 1.073.545l-.111.223-.113.224c-.332-.166-.706-.358-1.077-.547-.372-.19-.74-.379-1.063-.54a23.216 23.216 0 0 0-.61-.294v.028a5.527 5.527 0 0 1-.07.651 7.647 7.647 0 0 1-.131.643c-.024.093-.049.18-.073.252a1.356 1.356 0 0 1-.04.102l-.05.094c-.063.096-.151.248-.307.386a1.604 1.604 0 0 1-.532.299v1.824h-.5v-1.68a18.647 18.647 0 0 1-1.706.349v1.331h-.5v-1.34l-.087-.02a7.892 7.892 0 0 1-.695-.196c-.387-.129-.847-.32-1.232-.587l-.133 1.688-.5-.039.165-2.071c-.01-.012-.021-.023-.03-.036l-.095-.132c-.112-.175-.139-.387-.136-.577.003-.195.038-.4.079-.584.034-.153.076-.3.11-.424l-.176.063c-.35.13-.82.323-1.294.526a90.874 90.874 0 0 0-1.73.761l-.121.055-.032.014-.01.005-.104-.228L0 13.921l.001-.002.01-.004.032-.014.121-.056a111.429 111.429 0 0 1 1.74-.765c.476-.203.955-.402 1.317-.536.18-.066.338-.118.456-.148l.07-.016c-.546-.608-.996-1.318-1.209-2.057a3.351 3.351 0 0 1-.283-.189 1.911 1.911 0 0 1-.349-.327.783.783 0 0 1-.192-.48c0-.292-.091-.515-.202-.783-.11-.265-.24-.574-.24-.981 0-.266.07-.482.186-.652.115-.168.267-.276.41-.345a1.399 1.399 0 0 1 .507-.134l.03-.002V2.268a4.59 4.59 0 0 0 .258-.058c.042-.071.094-.14.149-.208.215-.262.552-.556.938-.83a8.08 8.08 0 0 1 1.29-.75c.446-.204.908-.355 1.315-.388l.301-.02ZM9.52 12.758c-.938.91-2.04 1.519-2.703 1.519l-.128-.008c-.666-.07-1.681-.646-2.556-1.49l-.007.035a3.653 3.653 0 0 1-.052.193c-.04.143-.086.307-.124.477-.038.17-.065.337-.067.482-.002.15.022.246.057.301l.066.093c.024.03.05.06.078.09l.136.13c.339.29.83.508 1.282.659a7.391 7.391 0 0 0 .848.226c.01.003.021.004.03.005h.012l.147-.023c.126-.02.306-.051.516-.09.421-.078.964-.19 1.458-.332l.186-.062c.164-.063.265-.13.333-.19.096-.085.142-.168.224-.29l.031-.081a2.9 2.9 0 0 0 .062-.213 7.13 7.13 0 0 0 .122-.599c.034-.215.06-.424.065-.59.003-.082 0-.148-.005-.194-.003-.025-.007-.037-.008-.04 0-.003-.002-.005-.003-.008ZM2.905 9.423c0 1.02.66 2.112 1.558 2.982.44.426.914.778 1.349 1.02.448.25.8.352 1.004.352.205 0 .556-.103 1.005-.353.435-.241.91-.593 1.35-1.02.897-.869 1.556-1.96 1.556-2.98 0-.338.044-.89.102-1.487h-.433a1.604 1.604 0 0 1-1.595 1.45c-.35 0-.674-.115-.938-.306a1.309 1.309 0 0 1-2.033.08l-.062-.08a1.59 1.59 0 0 1-.937.305 1.603 1.603 0 0 1-1.595-1.449h-.33v1.486ZM2.33 6.941a.893.893 0 0 0-.243.074.545.545 0 0 0-.216.179.634.634 0 0 0-.098.369c0 .296.091.522.202.79.11.263.24.571.24.975 0 .028.016.084.083.168.032.04.071.08.115.12l-.007-.193V6.931a.983.983 0 0 0-.076.01Zm9.103.03c-.105.936-.204 1.958-.205 2.452l-.007.193a1.1 1.1 0 0 0 .115-.12c.067-.084.083-.14.083-.168 0-.403.13-.712.24-.976.11-.267.201-.493.201-.789a.632.632 0 0 0-.097-.37.544.544 0 0 0-.216-.178.792.792 0 0 0-.114-.044Zm-4.596.742c-.092 0-.203.023-.377.085l-.026.01c-.006.343-.12.66-.309.918l.018.022.064.085a.811.811 0 0 0 1.284-.085l.017-.022a1.595 1.595 0 0 1-.308-.917l-.038-.015-.182-.063a.602.602 0 0 0-.143-.018ZM4.83 6.68c-.609 0-1.102.494-1.102 1.103l.005.113c.053.52.466.932.985.984l.112.006c.57 0 1.041-.434 1.098-.99l.006-.113c0-.571-.435-1.04-.99-1.097L4.83 6.68Zm3.97 0c-.609 0-1.103.494-1.103 1.103l.006.113c.053.519.466.932.984.984l.113.006c.57 0 1.04-.434 1.097-.99l.006-.113c0-.571-.434-1.04-.99-1.097L8.8 6.68ZM6.816 5.606c-1.507 0-2.689.324-3.49.645a7.694 7.694 0 0 0-.42.182v.754h.438a1.603 1.603 0 0 1 3.017.116l.073-.023c.14-.042.27-.067.402-.067.134 0 .259.026.387.07l.048.018a1.604 1.604 0 0 1 3.018-.114h.617l.045-.415.03-.253a4.187 4.187 0 0 0-.513-.272c-.702-.315-1.86-.641-3.652-.641Zm0-3.624c-1.856 0-2.971.446-3.91.686v3.216c.074-.032.152-.066.234-.098.852-.341 2.096-.68 3.676-.68 1.854 0 3.082.337 3.856.684.139.062.263.127.373.188.021-.179.04-.344.059-.485l.05-.398.014-.11a2.949 2.949 0 0 1 .005-.035v-.003l.004-.026.004-.016v-.002a.914.914 0 0 0 .009-.186 1.657 1.657 0 0 0-.145-.601c-.2-.46-.698-1.118-1.958-1.712l-.262-.117c-.362-.155-.95-.305-2.009-.305Zm3.37-.404C9.113.684 8.072.436 6.678.512l-.283.02c-.326.026-.728.153-1.149.346a7.581 7.581 0 0 0-1.207.7 6.076 6.076 0 0 0-.494.39c.811-.228 1.869-.486 3.27-.486 1.104 0 1.764.156 2.205.345.83.356 1.405.751 1.802 1.138l.013-.06h.003l.014.004a2.005 2.005 0 0 0 .248.026c.073.003.145 0 .206-.009a.32.32 0 0 0 .088-.025.503.503 0 0 0-.077-.178c-.107-.174-.32-.423-.698-.767l-.434-.378Z" clip-rule="evenodd"/>
</svg>
